<mxfile host="app.diagrams.net" modified="2023-06-11T21:24:04.170Z" agent="Mozilla/5.0 (X11; Linux x86_64; rv:109.0) Gecko/20100101 Firefox/114.0" etag="u0ZhWu4TuKrBc6SbXLYR" version="21.3.8">
  <diagram name="Page-1" id="rnXIykaxPFgthnGmRAr1">
    <mxGraphModel dx="1839" dy="519" grid="0" gridSize="10" guides="1" tooltips="1" connect="1" arrows="1" fold="1" page="1" pageScale="1" pageWidth="850" pageHeight="1100" background="#ffffff" math="0" shadow="0">
      <root>
        <mxCell id="0" />
        <mxCell id="1" parent="0" />
        <mxCell id="rlfNi6pHsEPrAqG3626Q-272" value="" style="group" vertex="1" connectable="0" parent="1">
          <mxGeometry x="-18" y="60" width="915" height="488" as="geometry" />
        </mxCell>
        <mxCell id="rlfNi6pHsEPrAqG3626Q-248" style="edgeStyle=orthogonalEdgeStyle;rounded=0;orthogonalLoop=1;jettySize=auto;html=1;entryX=0;entryY=0.5;entryDx=0;entryDy=0;entryPerimeter=0;strokeColor=#c01c28;strokeWidth=2;" edge="1" parent="rlfNi6pHsEPrAqG3626Q-272" target="rlfNi6pHsEPrAqG3626Q-249">
          <mxGeometry relative="1" as="geometry">
            <mxPoint x="795.3333333333335" y="177.4999999999999" as="targetPoint" />
            <mxPoint x="742" y="177.5" as="sourcePoint" />
          </mxGeometry>
        </mxCell>
        <mxCell id="rlfNi6pHsEPrAqG3626Q-154" value="" style="rounded=0;whiteSpace=wrap;html=1;fillColor=#FFF0F2;dashed=1;strokeWidth=1;strokeColor=#000000;" vertex="1" parent="rlfNi6pHsEPrAqG3626Q-272">
          <mxGeometry x="624" y="5" width="84" height="308" as="geometry" />
        </mxCell>
        <mxCell id="rlfNi6pHsEPrAqG3626Q-153" value="" style="rounded=0;whiteSpace=wrap;html=1;fillColor=#EDFFEB;dashed=1;strokeWidth=1;strokeColor=#000000;" vertex="1" parent="rlfNi6pHsEPrAqG3626Q-272">
          <mxGeometry x="139" y="5" width="84" height="308" as="geometry" />
        </mxCell>
        <mxCell id="rlfNi6pHsEPrAqG3626Q-149" value="" style="rounded=0;whiteSpace=wrap;html=1;fillColor=#E8F6FF;fillStyle=solid;strokeWidth=1;strokeColor=#080808;dashed=1;" vertex="1" parent="rlfNi6pHsEPrAqG3626Q-272">
          <mxGeometry x="223" y="5" width="401" height="308" as="geometry" />
        </mxCell>
        <mxCell id="rlfNi6pHsEPrAqG3626Q-37" value="" style="group" vertex="1" connectable="0" parent="rlfNi6pHsEPrAqG3626Q-272">
          <mxGeometry x="576" y="99" width="36" height="161" as="geometry" />
        </mxCell>
        <mxCell id="rlfNi6pHsEPrAqG3626Q-119" value="" style="group" vertex="1" connectable="0" parent="rlfNi6pHsEPrAqG3626Q-37">
          <mxGeometry x="-59" width="80.5" height="161" as="geometry" />
        </mxCell>
        <mxCell id="rlfNi6pHsEPrAqG3626Q-120" value="" style="group" vertex="1" connectable="0" parent="rlfNi6pHsEPrAqG3626Q-119">
          <mxGeometry x="42.5" width="38" height="161" as="geometry" />
        </mxCell>
        <mxCell id="rlfNi6pHsEPrAqG3626Q-121" value="" style="ellipse;whiteSpace=wrap;html=1;aspect=fixed;fillColor=#99c1f1;strokeColor=#000000;" vertex="1" parent="rlfNi6pHsEPrAqG3626Q-120">
          <mxGeometry width="36" height="36" as="geometry" />
        </mxCell>
        <mxCell id="rlfNi6pHsEPrAqG3626Q-122" value="" style="ellipse;whiteSpace=wrap;html=1;aspect=fixed;fillColor=#99c1f1;strokeColor=#000000;" vertex="1" parent="rlfNi6pHsEPrAqG3626Q-120">
          <mxGeometry y="45" width="36" height="36" as="geometry" />
        </mxCell>
        <mxCell id="rlfNi6pHsEPrAqG3626Q-123" value="" style="ellipse;whiteSpace=wrap;html=1;aspect=fixed;fillColor=#99c1f1;strokeColor=#000000;" vertex="1" parent="rlfNi6pHsEPrAqG3626Q-120">
          <mxGeometry y="125" width="36" height="36" as="geometry" />
        </mxCell>
        <mxCell id="rlfNi6pHsEPrAqG3626Q-124" value="" style="endArrow=none;dashed=1;html=1;strokeWidth=2;rounded=0;strokeColor=#000000;" edge="1" parent="rlfNi6pHsEPrAqG3626Q-120">
          <mxGeometry width="50" height="50" relative="1" as="geometry">
            <mxPoint x="17.75999999999999" y="117" as="sourcePoint" />
            <mxPoint x="17.75999999999999" y="81" as="targetPoint" />
          </mxGeometry>
        </mxCell>
        <mxCell id="rlfNi6pHsEPrAqG3626Q-242" value="&lt;font face=&quot;Computer modern&quot; color=&quot;#000000&quot;&gt;&lt;i&gt;a&lt;sub&gt;1&lt;/sub&gt;&lt;/i&gt;&lt;/font&gt;" style="ellipse;whiteSpace=wrap;html=1;aspect=fixed;fillColor=#99c1f1;strokeColor=#000000;" vertex="1" parent="rlfNi6pHsEPrAqG3626Q-120">
          <mxGeometry width="36" height="36" as="geometry" />
        </mxCell>
        <mxCell id="rlfNi6pHsEPrAqG3626Q-243" value="&lt;font data-font-src=&quot;https://fonts.googleapis.com/css?family=Computer+modern&quot; face=&quot;Computer modern&quot;&gt;&lt;i&gt;&lt;font color=&quot;#000000&quot;&gt;a&lt;sub&gt;2&lt;/sub&gt;&lt;/font&gt;&lt;/i&gt;&lt;/font&gt;" style="ellipse;whiteSpace=wrap;html=1;aspect=fixed;fillColor=#99c1f1;strokeColor=#000000;" vertex="1" parent="rlfNi6pHsEPrAqG3626Q-120">
          <mxGeometry y="45" width="36" height="36" as="geometry" />
        </mxCell>
        <mxCell id="rlfNi6pHsEPrAqG3626Q-244" value="&lt;font data-font-src=&quot;https://fonts.googleapis.com/css?family=Computer+modern&quot; face=&quot;Computer modern&quot; color=&quot;#000000&quot;&gt;&lt;i&gt;a&lt;sub&gt;2N&lt;/sub&gt;&lt;/i&gt;&lt;/font&gt;" style="ellipse;whiteSpace=wrap;html=1;aspect=fixed;fillColor=#99c1f1;strokeColor=#000000;" vertex="1" parent="rlfNi6pHsEPrAqG3626Q-120">
          <mxGeometry y="125" width="36" height="36" as="geometry" />
        </mxCell>
        <mxCell id="rlfNi6pHsEPrAqG3626Q-245" value="&lt;div&gt;&lt;font data-font-src=&quot;https://fonts.googleapis.com/css?family=Computer+modern&quot; size=&quot;1&quot; face=&quot;Computer modern&quot; color=&quot;#000000&quot;&gt;&lt;i&gt;&lt;sup style=&quot;font-size: 7px;&quot;&gt;(5)&lt;/sup&gt;&lt;/i&gt;&lt;/font&gt;&lt;/div&gt;" style="text;html=1;align=center;verticalAlign=middle;resizable=0;points=[];autosize=1;strokeColor=none;fillColor=none;" vertex="1" parent="rlfNi6pHsEPrAqG3626Q-120">
          <mxGeometry x="9" width="27" height="27" as="geometry" />
        </mxCell>
        <mxCell id="rlfNi6pHsEPrAqG3626Q-246" value="&lt;div&gt;&lt;font data-font-src=&quot;https://fonts.googleapis.com/css?family=Computer+modern&quot; size=&quot;1&quot; face=&quot;Computer modern&quot; color=&quot;#000000&quot;&gt;&lt;i&gt;&lt;sup style=&quot;font-size: 7px;&quot;&gt;(5)&lt;/sup&gt;&lt;/i&gt;&lt;/font&gt;&lt;/div&gt;" style="text;html=1;align=center;verticalAlign=middle;resizable=0;points=[];autosize=1;strokeColor=none;fillColor=none;" vertex="1" parent="rlfNi6pHsEPrAqG3626Q-120">
          <mxGeometry x="9" y="45" width="27" height="27" as="geometry" />
        </mxCell>
        <mxCell id="rlfNi6pHsEPrAqG3626Q-247" value="&lt;div&gt;&lt;font data-font-src=&quot;https://fonts.googleapis.com/css?family=Computer+modern&quot; size=&quot;1&quot; face=&quot;Computer modern&quot; color=&quot;#000000&quot;&gt;&lt;i&gt;&lt;sup style=&quot;font-size: 7px;&quot;&gt;(5)&lt;/sup&gt;&lt;/i&gt;&lt;/font&gt;&lt;/div&gt;" style="text;html=1;align=center;verticalAlign=middle;resizable=0;points=[];autosize=1;strokeColor=none;fillColor=none;" vertex="1" parent="rlfNi6pHsEPrAqG3626Q-120">
          <mxGeometry x="9" y="125" width="27" height="27" as="geometry" />
        </mxCell>
        <mxCell id="rlfNi6pHsEPrAqG3626Q-283" value="&lt;font style=&quot;font-size: 18px;&quot; face=&quot;Computer modern&quot; color=&quot;#000000&quot;&gt;&lt;i&gt;a&lt;sub&gt;1&lt;/sub&gt;&lt;/i&gt;&lt;/font&gt;" style="ellipse;whiteSpace=wrap;html=1;aspect=fixed;fillColor=#99c1f1;strokeColor=#000000;" vertex="1" parent="rlfNi6pHsEPrAqG3626Q-120">
          <mxGeometry width="36" height="36" as="geometry" />
        </mxCell>
        <mxCell id="rlfNi6pHsEPrAqG3626Q-289" value="&lt;font style=&quot;font-size: 18px;&quot; face=&quot;Computer modern&quot; color=&quot;#000000&quot;&gt;&lt;i&gt;a&lt;sub&gt;2N&lt;/sub&gt;&lt;/i&gt;&lt;/font&gt;" style="ellipse;whiteSpace=wrap;html=1;aspect=fixed;fillColor=#99c1f1;strokeColor=#000000;" vertex="1" parent="rlfNi6pHsEPrAqG3626Q-120">
          <mxGeometry y="125" width="36" height="36" as="geometry" />
        </mxCell>
        <mxCell id="rlfNi6pHsEPrAqG3626Q-293" value="&lt;font style=&quot;font-size: 18px;&quot; face=&quot;Computer modern&quot; color=&quot;#000000&quot;&gt;&lt;i&gt;a&lt;sub&gt;2&lt;/sub&gt;&lt;/i&gt;&lt;/font&gt;" style="ellipse;whiteSpace=wrap;html=1;aspect=fixed;fillColor=#99c1f1;strokeColor=#000000;" vertex="1" parent="rlfNi6pHsEPrAqG3626Q-120">
          <mxGeometry y="45" width="36" height="36" as="geometry" />
        </mxCell>
        <mxCell id="rlfNi6pHsEPrAqG3626Q-638" value="&lt;div style=&quot;font-size: 13px;&quot;&gt;&lt;font data-font-src=&quot;https://fonts.googleapis.com/css?family=Computer+modern&quot; size=&quot;1&quot; face=&quot;Computer modern&quot; color=&quot;#000000&quot;&gt;&lt;i&gt;(5)&lt;/i&gt;&lt;/font&gt;&lt;/div&gt;" style="text;html=1;align=center;verticalAlign=middle;resizable=0;points=[];autosize=1;strokeColor=none;fillColor=none;" vertex="1" parent="rlfNi6pHsEPrAqG3626Q-120">
          <mxGeometry x="7" y="-5" width="31" height="28" as="geometry" />
        </mxCell>
        <mxCell id="rlfNi6pHsEPrAqG3626Q-639" value="&lt;div style=&quot;font-size: 13px;&quot;&gt;&lt;font data-font-src=&quot;https://fonts.googleapis.com/css?family=Computer+modern&quot; size=&quot;1&quot; face=&quot;Computer modern&quot; color=&quot;#000000&quot;&gt;&lt;i&gt;(5)&lt;/i&gt;&lt;/font&gt;&lt;/div&gt;" style="text;html=1;align=center;verticalAlign=middle;resizable=0;points=[];autosize=1;strokeColor=none;fillColor=none;" vertex="1" parent="rlfNi6pHsEPrAqG3626Q-120">
          <mxGeometry x="7" y="40" width="31" height="28" as="geometry" />
        </mxCell>
        <mxCell id="rlfNi6pHsEPrAqG3626Q-279" value="&lt;div style=&quot;font-size: 13px;&quot;&gt;&lt;font data-font-src=&quot;https://fonts.googleapis.com/css?family=Computer+modern&quot; size=&quot;1&quot; face=&quot;Computer modern&quot; color=&quot;#000000&quot;&gt;&lt;i&gt;(5)&lt;/i&gt;&lt;/font&gt;&lt;/div&gt;" style="text;html=1;align=center;verticalAlign=middle;resizable=0;points=[];autosize=1;strokeColor=none;fillColor=none;" vertex="1" parent="rlfNi6pHsEPrAqG3626Q-120">
          <mxGeometry x="7" y="120" width="31" height="28" as="geometry" />
        </mxCell>
        <mxCell id="rlfNi6pHsEPrAqG3626Q-125" value="" style="endArrow=classic;html=1;rounded=0;entryX=0.059;entryY=0.242;entryDx=0;entryDy=0;strokeColor=#1c71d8;endSize=3;entryPerimeter=0;" edge="1" parent="rlfNi6pHsEPrAqG3626Q-119" target="rlfNi6pHsEPrAqG3626Q-122">
          <mxGeometry width="50" height="50" relative="1" as="geometry">
            <mxPoint y="18" as="sourcePoint" />
            <mxPoint x="50" y="-32" as="targetPoint" />
          </mxGeometry>
        </mxCell>
        <mxCell id="rlfNi6pHsEPrAqG3626Q-127" value="" style="endArrow=classic;html=1;rounded=0;entryX=0.154;entryY=0.886;entryDx=0;entryDy=0;entryPerimeter=0;strokeColor=#1c71d8;endSize=3;" edge="1" parent="rlfNi6pHsEPrAqG3626Q-119" target="rlfNi6pHsEPrAqG3626Q-121">
          <mxGeometry width="50" height="50" relative="1" as="geometry">
            <mxPoint y="144" as="sourcePoint" />
            <mxPoint x="47.5" y="209" as="targetPoint" />
          </mxGeometry>
        </mxCell>
        <mxCell id="rlfNi6pHsEPrAqG3626Q-126" value="" style="endArrow=classic;html=1;rounded=0;entryX=0.018;entryY=0.317;entryDx=0;entryDy=0;strokeColor=#1c71d8;endSize=3;entryPerimeter=0;" edge="1" parent="rlfNi6pHsEPrAqG3626Q-119" target="rlfNi6pHsEPrAqG3626Q-123">
          <mxGeometry width="50" height="50" relative="1" as="geometry">
            <mxPoint y="65" as="sourcePoint" />
            <mxPoint x="42.5" y="110" as="targetPoint" />
          </mxGeometry>
        </mxCell>
        <mxCell id="rlfNi6pHsEPrAqG3626Q-128" value="" style="endArrow=classic;html=1;rounded=0;entryX=0.021;entryY=0.733;entryDx=0;entryDy=0;entryPerimeter=0;strokeColor=#1c71d8;endSize=3;" edge="1" parent="rlfNi6pHsEPrAqG3626Q-119" target="rlfNi6pHsEPrAqG3626Q-121">
          <mxGeometry width="50" height="50" relative="1" as="geometry">
            <mxPoint y="63" as="sourcePoint" />
            <mxPoint x="46.5" y="-55" as="targetPoint" />
          </mxGeometry>
        </mxCell>
        <mxCell id="rlfNi6pHsEPrAqG3626Q-129" value="" style="endArrow=classic;html=1;rounded=0;strokeColor=#1c71d8;endSize=3;entryX=0.147;entryY=0.127;entryDx=0;entryDy=0;entryPerimeter=0;" edge="1" parent="rlfNi6pHsEPrAqG3626Q-119" target="rlfNi6pHsEPrAqG3626Q-123">
          <mxGeometry width="50" height="50" relative="1" as="geometry">
            <mxPoint y="18" as="sourcePoint" />
            <mxPoint x="54.5" y="118" as="targetPoint" />
          </mxGeometry>
        </mxCell>
        <mxCell id="rlfNi6pHsEPrAqG3626Q-130" style="edgeStyle=orthogonalEdgeStyle;rounded=0;orthogonalLoop=1;jettySize=auto;html=1;entryX=0;entryY=0.5;entryDx=0;entryDy=0;strokeColor=#1c71d8;endSize=3;" edge="1" parent="rlfNi6pHsEPrAqG3626Q-119">
          <mxGeometry relative="1" as="geometry">
            <mxPoint x="0.5" y="142.95" as="sourcePoint" />
            <mxPoint x="42.5" y="142.95" as="targetPoint" />
          </mxGeometry>
        </mxCell>
        <mxCell id="rlfNi6pHsEPrAqG3626Q-132" style="edgeStyle=orthogonalEdgeStyle;rounded=0;orthogonalLoop=1;jettySize=auto;html=1;entryX=0;entryY=0.5;entryDx=0;entryDy=0;strokeColor=#1c71d8;endSize=3;" edge="1" parent="rlfNi6pHsEPrAqG3626Q-119">
          <mxGeometry relative="1" as="geometry">
            <mxPoint y="18" as="sourcePoint" />
            <mxPoint x="42" y="18" as="targetPoint" />
          </mxGeometry>
        </mxCell>
        <mxCell id="rlfNi6pHsEPrAqG3626Q-133" style="edgeStyle=orthogonalEdgeStyle;rounded=0;orthogonalLoop=1;jettySize=auto;html=1;strokeColor=#1c71d8;endSize=3;" edge="1" parent="rlfNi6pHsEPrAqG3626Q-119">
          <mxGeometry relative="1" as="geometry">
            <mxPoint y="64" as="sourcePoint" />
            <mxPoint x="42" y="64" as="targetPoint" />
          </mxGeometry>
        </mxCell>
        <mxCell id="rlfNi6pHsEPrAqG3626Q-84" value="" style="group" vertex="1" connectable="0" parent="rlfNi6pHsEPrAqG3626Q-272">
          <mxGeometry x="199.5" y="96" width="162" height="163" as="geometry" />
        </mxCell>
        <mxCell id="rlfNi6pHsEPrAqG3626Q-68" value="" style="group" vertex="1" connectable="0" parent="rlfNi6pHsEPrAqG3626Q-84">
          <mxGeometry y="1" width="80.5" height="161" as="geometry" />
        </mxCell>
        <mxCell id="rlfNi6pHsEPrAqG3626Q-15" value="" style="group" vertex="1" connectable="0" parent="rlfNi6pHsEPrAqG3626Q-68">
          <mxGeometry x="42.5" width="38" height="161" as="geometry" />
        </mxCell>
        <mxCell id="rlfNi6pHsEPrAqG3626Q-7" value="&lt;font face=&quot;Computer modern&quot; color=&quot;#000000&quot;&gt;&lt;i&gt;a&lt;sub&gt;1&lt;/sub&gt;&lt;/i&gt;&lt;/font&gt;" style="ellipse;whiteSpace=wrap;html=1;aspect=fixed;fillColor=#99c1f1;strokeColor=#000000;" vertex="1" parent="rlfNi6pHsEPrAqG3626Q-15">
          <mxGeometry width="36" height="36" as="geometry" />
        </mxCell>
        <mxCell id="rlfNi6pHsEPrAqG3626Q-8" value="&lt;font data-font-src=&quot;https://fonts.googleapis.com/css?family=Computer+modern&quot; face=&quot;Computer modern&quot;&gt;&lt;i&gt;&lt;font color=&quot;#000000&quot;&gt;a&lt;sub&gt;2&lt;/sub&gt;&lt;/font&gt;&lt;/i&gt;&lt;/font&gt;" style="ellipse;whiteSpace=wrap;html=1;aspect=fixed;fillColor=#99c1f1;strokeColor=#000000;" vertex="1" parent="rlfNi6pHsEPrAqG3626Q-15">
          <mxGeometry y="45" width="36" height="36" as="geometry" />
        </mxCell>
        <mxCell id="rlfNi6pHsEPrAqG3626Q-9" value="&lt;font data-font-src=&quot;https://fonts.googleapis.com/css?family=Computer+modern&quot; face=&quot;Computer modern&quot; color=&quot;#000000&quot;&gt;&lt;i&gt;a&lt;sub&gt;2N&lt;/sub&gt;&lt;/i&gt;&lt;/font&gt;" style="ellipse;whiteSpace=wrap;html=1;aspect=fixed;fillColor=#99c1f1;strokeColor=#000000;" vertex="1" parent="rlfNi6pHsEPrAqG3626Q-15">
          <mxGeometry y="125" width="36" height="36" as="geometry" />
        </mxCell>
        <mxCell id="rlfNi6pHsEPrAqG3626Q-10" value="" style="endArrow=none;dashed=1;html=1;strokeWidth=2;rounded=0;strokeColor=#000000;" edge="1" parent="rlfNi6pHsEPrAqG3626Q-15">
          <mxGeometry width="50" height="50" relative="1" as="geometry">
            <mxPoint x="17.75999999999999" y="117" as="sourcePoint" />
            <mxPoint x="17.75999999999999" y="81" as="targetPoint" />
          </mxGeometry>
        </mxCell>
        <mxCell id="rlfNi6pHsEPrAqG3626Q-280" value="&lt;font style=&quot;font-size: 18px;&quot; face=&quot;Computer modern&quot; color=&quot;#000000&quot;&gt;&lt;i&gt;a&lt;sub&gt;1&lt;/sub&gt;&lt;/i&gt;&lt;/font&gt;" style="ellipse;whiteSpace=wrap;html=1;aspect=fixed;fillColor=#99c1f1;strokeColor=#000000;" vertex="1" parent="rlfNi6pHsEPrAqG3626Q-15">
          <mxGeometry width="36" height="36" as="geometry" />
        </mxCell>
        <mxCell id="rlfNi6pHsEPrAqG3626Q-284" value="&lt;font style=&quot;font-size: 18px;&quot; face=&quot;Computer modern&quot; color=&quot;#000000&quot;&gt;&lt;i&gt;a&lt;sub&gt;2&lt;/sub&gt;&lt;/i&gt;&lt;/font&gt;" style="ellipse;whiteSpace=wrap;html=1;aspect=fixed;fillColor=#99c1f1;strokeColor=#000000;" vertex="1" parent="rlfNi6pHsEPrAqG3626Q-15">
          <mxGeometry y="45" width="36" height="36" as="geometry" />
        </mxCell>
        <mxCell id="rlfNi6pHsEPrAqG3626Q-285" value="&lt;font style=&quot;font-size: 18px;&quot; face=&quot;Computer modern&quot; color=&quot;#000000&quot;&gt;&lt;i&gt;a&lt;sub&gt;2N&lt;/sub&gt;&lt;/i&gt;&lt;/font&gt;" style="ellipse;whiteSpace=wrap;html=1;aspect=fixed;fillColor=#99c1f1;strokeColor=#000000;" vertex="1" parent="rlfNi6pHsEPrAqG3626Q-15">
          <mxGeometry y="125" width="36" height="36" as="geometry" />
        </mxCell>
        <mxCell id="rlfNi6pHsEPrAqG3626Q-629" value="&lt;div style=&quot;font-size: 13px;&quot;&gt;&lt;font data-font-src=&quot;https://fonts.googleapis.com/css?family=Computer+modern&quot; size=&quot;1&quot; face=&quot;Computer modern&quot; color=&quot;#000000&quot;&gt;&lt;i&gt;(1)&lt;/i&gt;&lt;/font&gt;&lt;/div&gt;" style="text;html=1;align=center;verticalAlign=middle;resizable=0;points=[];autosize=1;strokeColor=none;fillColor=none;" vertex="1" parent="rlfNi6pHsEPrAqG3626Q-15">
          <mxGeometry x="7" y="-3" width="31" height="28" as="geometry" />
        </mxCell>
        <mxCell id="rlfNi6pHsEPrAqG3626Q-630" value="&lt;div style=&quot;font-size: 13px;&quot;&gt;&lt;font data-font-src=&quot;https://fonts.googleapis.com/css?family=Computer+modern&quot; size=&quot;1&quot; face=&quot;Computer modern&quot; color=&quot;#000000&quot;&gt;&lt;i&gt;(1)&lt;/i&gt;&lt;/font&gt;&lt;/div&gt;" style="text;html=1;align=center;verticalAlign=middle;resizable=0;points=[];autosize=1;strokeColor=none;fillColor=none;" vertex="1" parent="rlfNi6pHsEPrAqG3626Q-15">
          <mxGeometry x="7" y="42" width="31" height="28" as="geometry" />
        </mxCell>
        <mxCell id="rlfNi6pHsEPrAqG3626Q-631" value="&lt;div style=&quot;font-size: 13px;&quot;&gt;&lt;font data-font-src=&quot;https://fonts.googleapis.com/css?family=Computer+modern&quot; size=&quot;1&quot; face=&quot;Computer modern&quot; color=&quot;#000000&quot;&gt;&lt;i&gt;(1)&lt;/i&gt;&lt;/font&gt;&lt;/div&gt;" style="text;html=1;align=center;verticalAlign=middle;resizable=0;points=[];autosize=1;strokeColor=none;fillColor=none;" vertex="1" parent="rlfNi6pHsEPrAqG3626Q-15">
          <mxGeometry x="7" y="121" width="31" height="28" as="geometry" />
        </mxCell>
        <mxCell id="rlfNi6pHsEPrAqG3626Q-69" value="" style="group" vertex="1" connectable="0" parent="rlfNi6pHsEPrAqG3626Q-84">
          <mxGeometry x="79.5" width="82.5" height="163" as="geometry" />
        </mxCell>
        <mxCell id="rlfNi6pHsEPrAqG3626Q-70" value="" style="group" vertex="1" connectable="0" parent="rlfNi6pHsEPrAqG3626Q-69">
          <mxGeometry x="42.5" width="40" height="163" as="geometry" />
        </mxCell>
        <mxCell id="rlfNi6pHsEPrAqG3626Q-71" value="&lt;font style=&quot;font-size: 18px;&quot; face=&quot;Computer modern&quot; color=&quot;#000000&quot;&gt;&lt;i&gt;a&lt;sub&gt;1&lt;/sub&gt;&lt;/i&gt;&lt;/font&gt;" style="ellipse;whiteSpace=wrap;html=1;aspect=fixed;fillColor=#99c1f1;strokeColor=#000000;" vertex="1" parent="rlfNi6pHsEPrAqG3626Q-70">
          <mxGeometry width="36" height="36" as="geometry" />
        </mxCell>
        <mxCell id="rlfNi6pHsEPrAqG3626Q-74" value="" style="endArrow=none;dashed=1;html=1;strokeWidth=2;rounded=0;strokeColor=#000000;" edge="1" parent="rlfNi6pHsEPrAqG3626Q-70">
          <mxGeometry width="50" height="50" relative="1" as="geometry">
            <mxPoint x="17.75999999999999" y="117" as="sourcePoint" />
            <mxPoint x="17.75999999999999" y="81" as="targetPoint" />
          </mxGeometry>
        </mxCell>
        <mxCell id="rlfNi6pHsEPrAqG3626Q-156" value="a2" style="ellipse;whiteSpace=wrap;html=1;aspect=fixed;fillColor=#99c1f1;strokeColor=#000000;" vertex="1" parent="rlfNi6pHsEPrAqG3626Q-70">
          <mxGeometry y="47" width="36" height="36" as="geometry" />
        </mxCell>
        <mxCell id="rlfNi6pHsEPrAqG3626Q-157" value="" style="ellipse;whiteSpace=wrap;html=1;aspect=fixed;fillColor=#99c1f1;strokeColor=#000000;" vertex="1" parent="rlfNi6pHsEPrAqG3626Q-70">
          <mxGeometry y="127" width="36" height="36" as="geometry" />
        </mxCell>
        <mxCell id="rlfNi6pHsEPrAqG3626Q-223" value="&lt;font data-font-src=&quot;https://fonts.googleapis.com/css?family=Computer+modern&quot; face=&quot;Computer modern&quot;&gt;&lt;i&gt;&lt;font color=&quot;#000000&quot;&gt;a&lt;sub&gt;2&lt;/sub&gt;&lt;/font&gt;&lt;/i&gt;&lt;/font&gt;" style="ellipse;whiteSpace=wrap;html=1;aspect=fixed;fillColor=#99c1f1;strokeColor=#000000;" vertex="1" parent="rlfNi6pHsEPrAqG3626Q-70">
          <mxGeometry y="47" width="36" height="36" as="geometry" />
        </mxCell>
        <mxCell id="rlfNi6pHsEPrAqG3626Q-224" value="&lt;font data-font-src=&quot;https://fonts.googleapis.com/css?family=Computer+modern&quot; face=&quot;Computer modern&quot; color=&quot;#000000&quot;&gt;&lt;i&gt;a&lt;sub&gt;2N&lt;/sub&gt;&lt;/i&gt;&lt;/font&gt;" style="ellipse;whiteSpace=wrap;html=1;aspect=fixed;fillColor=#99c1f1;strokeColor=#000000;" vertex="1" parent="rlfNi6pHsEPrAqG3626Q-70">
          <mxGeometry y="127" width="36" height="36" as="geometry" />
        </mxCell>
        <mxCell id="rlfNi6pHsEPrAqG3626Q-227" value="&lt;div&gt;&lt;font data-font-src=&quot;https://fonts.googleapis.com/css?family=Computer+modern&quot; size=&quot;1&quot; face=&quot;Computer modern&quot; color=&quot;#000000&quot;&gt;&lt;i&gt;&lt;sup style=&quot;font-size: 7px;&quot;&gt;(2)&lt;/sup&gt;&lt;/i&gt;&lt;/font&gt;&lt;/div&gt;" style="text;html=1;align=center;verticalAlign=middle;resizable=0;points=[];autosize=1;strokeColor=none;fillColor=none;" vertex="1" parent="rlfNi6pHsEPrAqG3626Q-70">
          <mxGeometry x="9" y="47" width="27" height="27" as="geometry" />
        </mxCell>
        <mxCell id="rlfNi6pHsEPrAqG3626Q-228" value="&lt;div&gt;&lt;font data-font-src=&quot;https://fonts.googleapis.com/css?family=Computer+modern&quot; size=&quot;1&quot; face=&quot;Computer modern&quot; color=&quot;#000000&quot;&gt;&lt;i&gt;&lt;sup style=&quot;font-size: 7px;&quot;&gt;(2)&lt;/sup&gt;&lt;/i&gt;&lt;/font&gt;&lt;/div&gt;" style="text;html=1;align=center;verticalAlign=middle;resizable=0;points=[];autosize=1;strokeColor=none;fillColor=none;" vertex="1" parent="rlfNi6pHsEPrAqG3626Q-70">
          <mxGeometry x="9" y="127" width="27" height="27" as="geometry" />
        </mxCell>
        <mxCell id="rlfNi6pHsEPrAqG3626Q-286" value="&lt;font style=&quot;font-size: 18px;&quot; face=&quot;Computer modern&quot; color=&quot;#000000&quot;&gt;&lt;i&gt;a&lt;sub&gt;2N&lt;/sub&gt;&lt;/i&gt;&lt;/font&gt;" style="ellipse;whiteSpace=wrap;html=1;aspect=fixed;fillColor=#99c1f1;strokeColor=#000000;" vertex="1" parent="rlfNi6pHsEPrAqG3626Q-70">
          <mxGeometry y="127" width="36" height="36" as="geometry" />
        </mxCell>
        <mxCell id="rlfNi6pHsEPrAqG3626Q-290" value="&lt;font style=&quot;font-size: 18px;&quot; face=&quot;Computer modern&quot; color=&quot;#000000&quot;&gt;&lt;i&gt;a&lt;sub&gt;2&lt;/sub&gt;&lt;/i&gt;&lt;/font&gt;" style="ellipse;whiteSpace=wrap;html=1;aspect=fixed;fillColor=#99c1f1;strokeColor=#000000;" vertex="1" parent="rlfNi6pHsEPrAqG3626Q-70">
          <mxGeometry y="47" width="36" height="36" as="geometry" />
        </mxCell>
        <mxCell id="rlfNi6pHsEPrAqG3626Q-626" value="&lt;div style=&quot;font-size: 13px;&quot;&gt;&lt;font data-font-src=&quot;https://fonts.googleapis.com/css?family=Computer+modern&quot; size=&quot;1&quot; face=&quot;Computer modern&quot; color=&quot;#000000&quot;&gt;&lt;i&gt;(2)&lt;/i&gt;&lt;/font&gt;&lt;/div&gt;" style="text;html=1;align=center;verticalAlign=middle;resizable=0;points=[];autosize=1;strokeColor=none;fillColor=none;" vertex="1" parent="rlfNi6pHsEPrAqG3626Q-70">
          <mxGeometry x="9" y="-4" width="31" height="28" as="geometry" />
        </mxCell>
        <mxCell id="rlfNi6pHsEPrAqG3626Q-627" value="&lt;div style=&quot;font-size: 13px;&quot;&gt;&lt;font data-font-src=&quot;https://fonts.googleapis.com/css?family=Computer+modern&quot; size=&quot;1&quot; face=&quot;Computer modern&quot; color=&quot;#000000&quot;&gt;&lt;i&gt;(2)&lt;/i&gt;&lt;/font&gt;&lt;/div&gt;" style="text;html=1;align=center;verticalAlign=middle;resizable=0;points=[];autosize=1;strokeColor=none;fillColor=none;" vertex="1" parent="rlfNi6pHsEPrAqG3626Q-70">
          <mxGeometry x="9" y="44" width="31" height="28" as="geometry" />
        </mxCell>
        <mxCell id="rlfNi6pHsEPrAqG3626Q-628" value="&lt;div style=&quot;font-size: 13px;&quot;&gt;&lt;font data-font-src=&quot;https://fonts.googleapis.com/css?family=Computer+modern&quot; size=&quot;1&quot; face=&quot;Computer modern&quot; color=&quot;#000000&quot;&gt;&lt;i&gt;(2)&lt;/i&gt;&lt;/font&gt;&lt;/div&gt;" style="text;html=1;align=center;verticalAlign=middle;resizable=0;points=[];autosize=1;strokeColor=none;fillColor=none;" vertex="1" parent="rlfNi6pHsEPrAqG3626Q-70">
          <mxGeometry x="7" y="123" width="31" height="28" as="geometry" />
        </mxCell>
        <mxCell id="rlfNi6pHsEPrAqG3626Q-75" value="" style="endArrow=classic;html=1;rounded=0;entryX=0.059;entryY=0.242;entryDx=0;entryDy=0;strokeColor=#1c71d8;endSize=3;entryPerimeter=0;" edge="1" parent="rlfNi6pHsEPrAqG3626Q-69">
          <mxGeometry width="50" height="50" relative="1" as="geometry">
            <mxPoint y="18" as="sourcePoint" />
            <mxPoint x="44.624000000000024" y="53.71199999999999" as="targetPoint" />
          </mxGeometry>
        </mxCell>
        <mxCell id="rlfNi6pHsEPrAqG3626Q-76" value="" style="endArrow=classic;html=1;rounded=0;entryX=0.018;entryY=0.317;entryDx=0;entryDy=0;strokeColor=#1c71d8;endSize=3;entryPerimeter=0;" edge="1" parent="rlfNi6pHsEPrAqG3626Q-69">
          <mxGeometry width="50" height="50" relative="1" as="geometry">
            <mxPoint y="65" as="sourcePoint" />
            <mxPoint x="43.14799999999997" y="136.41200000000003" as="targetPoint" />
          </mxGeometry>
        </mxCell>
        <mxCell id="rlfNi6pHsEPrAqG3626Q-77" value="" style="endArrow=classic;html=1;rounded=0;entryX=0.154;entryY=0.886;entryDx=0;entryDy=0;entryPerimeter=0;strokeColor=#1c71d8;endSize=3;" edge="1" parent="rlfNi6pHsEPrAqG3626Q-69" target="rlfNi6pHsEPrAqG3626Q-71">
          <mxGeometry width="50" height="50" relative="1" as="geometry">
            <mxPoint y="143" as="sourcePoint" />
            <mxPoint x="47.5" y="209" as="targetPoint" />
          </mxGeometry>
        </mxCell>
        <mxCell id="rlfNi6pHsEPrAqG3626Q-78" value="" style="endArrow=classic;html=1;rounded=0;entryX=0.021;entryY=0.733;entryDx=0;entryDy=0;entryPerimeter=0;strokeColor=#1c71d8;endSize=3;" edge="1" parent="rlfNi6pHsEPrAqG3626Q-69" target="rlfNi6pHsEPrAqG3626Q-71">
          <mxGeometry width="50" height="50" relative="1" as="geometry">
            <mxPoint y="63" as="sourcePoint" />
            <mxPoint x="46.5" y="-55" as="targetPoint" />
          </mxGeometry>
        </mxCell>
        <mxCell id="rlfNi6pHsEPrAqG3626Q-79" value="" style="endArrow=classic;html=1;rounded=0;strokeColor=#1c71d8;endSize=3;entryX=0.147;entryY=0.127;entryDx=0;entryDy=0;entryPerimeter=0;" edge="1" parent="rlfNi6pHsEPrAqG3626Q-69">
          <mxGeometry width="50" height="50" relative="1" as="geometry">
            <mxPoint y="18" as="sourcePoint" />
            <mxPoint x="47.79199999999997" y="129.572" as="targetPoint" />
          </mxGeometry>
        </mxCell>
        <mxCell id="rlfNi6pHsEPrAqG3626Q-80" style="edgeStyle=orthogonalEdgeStyle;rounded=0;orthogonalLoop=1;jettySize=auto;html=1;entryX=0;entryY=0.5;entryDx=0;entryDy=0;strokeColor=#1c71d8;endSize=3;" edge="1" parent="rlfNi6pHsEPrAqG3626Q-69">
          <mxGeometry relative="1" as="geometry">
            <mxPoint x="0.5" y="142.95" as="sourcePoint" />
            <mxPoint x="42.5" y="142.95" as="targetPoint" />
          </mxGeometry>
        </mxCell>
        <mxCell id="rlfNi6pHsEPrAqG3626Q-81" value="" style="endArrow=classic;html=1;rounded=0;strokeColor=#1c71d8;endSize=3;entryX=0.046;entryY=0.735;entryDx=0;entryDy=0;entryPerimeter=0;" edge="1" parent="rlfNi6pHsEPrAqG3626Q-69">
          <mxGeometry width="50" height="50" relative="1" as="geometry">
            <mxPoint y="143" as="sourcePoint" />
            <mxPoint x="44.15599999999995" y="71.46000000000004" as="targetPoint" />
          </mxGeometry>
        </mxCell>
        <mxCell id="rlfNi6pHsEPrAqG3626Q-82" style="edgeStyle=orthogonalEdgeStyle;rounded=0;orthogonalLoop=1;jettySize=auto;html=1;entryX=0;entryY=0.5;entryDx=0;entryDy=0;strokeColor=#3584e4;endSize=3;" edge="1" parent="rlfNi6pHsEPrAqG3626Q-69">
          <mxGeometry relative="1" as="geometry">
            <mxPoint y="18" as="sourcePoint" />
            <mxPoint x="42" y="18" as="targetPoint" />
          </mxGeometry>
        </mxCell>
        <mxCell id="rlfNi6pHsEPrAqG3626Q-83" style="edgeStyle=orthogonalEdgeStyle;rounded=0;orthogonalLoop=1;jettySize=auto;html=1;strokeColor=#1c71d8;endSize=3;" edge="1" parent="rlfNi6pHsEPrAqG3626Q-69">
          <mxGeometry relative="1" as="geometry">
            <mxPoint y="64" as="sourcePoint" />
            <mxPoint x="42" y="64" as="targetPoint" />
          </mxGeometry>
        </mxCell>
        <mxCell id="rlfNi6pHsEPrAqG3626Q-85" value="" style="group" vertex="1" connectable="0" parent="rlfNi6pHsEPrAqG3626Q-272">
          <mxGeometry x="359" y="97" width="160" height="162" as="geometry" />
        </mxCell>
        <mxCell id="rlfNi6pHsEPrAqG3626Q-86" value="" style="group" vertex="1" connectable="0" parent="rlfNi6pHsEPrAqG3626Q-85">
          <mxGeometry y="1" width="80" height="161" as="geometry" />
        </mxCell>
        <mxCell id="rlfNi6pHsEPrAqG3626Q-87" value="" style="group" vertex="1" connectable="0" parent="rlfNi6pHsEPrAqG3626Q-86">
          <mxGeometry x="42.5" width="37.5" height="161" as="geometry" />
        </mxCell>
        <mxCell id="rlfNi6pHsEPrAqG3626Q-88" value="" style="ellipse;whiteSpace=wrap;html=1;aspect=fixed;fillColor=#99c1f1;strokeColor=#000000;" vertex="1" parent="rlfNi6pHsEPrAqG3626Q-87">
          <mxGeometry width="36" height="36" as="geometry" />
        </mxCell>
        <mxCell id="rlfNi6pHsEPrAqG3626Q-89" value="" style="ellipse;whiteSpace=wrap;html=1;aspect=fixed;fillColor=#99c1f1;strokeColor=#000000;" vertex="1" parent="rlfNi6pHsEPrAqG3626Q-87">
          <mxGeometry y="45" width="36" height="36" as="geometry" />
        </mxCell>
        <mxCell id="rlfNi6pHsEPrAqG3626Q-90" value="" style="ellipse;whiteSpace=wrap;html=1;aspect=fixed;fillColor=#99c1f1;strokeColor=#000000;" vertex="1" parent="rlfNi6pHsEPrAqG3626Q-87">
          <mxGeometry y="125" width="36" height="36" as="geometry" />
        </mxCell>
        <mxCell id="rlfNi6pHsEPrAqG3626Q-91" value="" style="endArrow=none;dashed=1;html=1;strokeWidth=2;rounded=0;strokeColor=#000000;" edge="1" parent="rlfNi6pHsEPrAqG3626Q-87">
          <mxGeometry width="50" height="50" relative="1" as="geometry">
            <mxPoint x="17.75999999999999" y="117" as="sourcePoint" />
            <mxPoint x="17.75999999999999" y="81" as="targetPoint" />
          </mxGeometry>
        </mxCell>
        <mxCell id="rlfNi6pHsEPrAqG3626Q-229" value="&lt;font face=&quot;Computer modern&quot; color=&quot;#000000&quot;&gt;&lt;i&gt;a&lt;sub&gt;1&lt;/sub&gt;&lt;/i&gt;&lt;/font&gt;" style="ellipse;whiteSpace=wrap;html=1;aspect=fixed;fillColor=#99c1f1;strokeColor=#000000;" vertex="1" parent="rlfNi6pHsEPrAqG3626Q-87">
          <mxGeometry width="36" height="36" as="geometry" />
        </mxCell>
        <mxCell id="rlfNi6pHsEPrAqG3626Q-230" value="&lt;font data-font-src=&quot;https://fonts.googleapis.com/css?family=Computer+modern&quot; face=&quot;Computer modern&quot;&gt;&lt;i&gt;&lt;font color=&quot;#000000&quot;&gt;a&lt;sub&gt;2&lt;/sub&gt;&lt;/font&gt;&lt;/i&gt;&lt;/font&gt;" style="ellipse;whiteSpace=wrap;html=1;aspect=fixed;fillColor=#99c1f1;strokeColor=#000000;" vertex="1" parent="rlfNi6pHsEPrAqG3626Q-87">
          <mxGeometry y="45" width="36" height="36" as="geometry" />
        </mxCell>
        <mxCell id="rlfNi6pHsEPrAqG3626Q-231" value="&lt;font data-font-src=&quot;https://fonts.googleapis.com/css?family=Computer+modern&quot; face=&quot;Computer modern&quot; color=&quot;#000000&quot;&gt;&lt;i&gt;a&lt;sub&gt;2N&lt;/sub&gt;&lt;/i&gt;&lt;/font&gt;" style="ellipse;whiteSpace=wrap;html=1;aspect=fixed;fillColor=#99c1f1;strokeColor=#000000;" vertex="1" parent="rlfNi6pHsEPrAqG3626Q-87">
          <mxGeometry y="125" width="36" height="36" as="geometry" />
        </mxCell>
        <mxCell id="rlfNi6pHsEPrAqG3626Q-232" value="&lt;div&gt;&lt;font data-font-src=&quot;https://fonts.googleapis.com/css?family=Computer+modern&quot; size=&quot;1&quot; face=&quot;Computer modern&quot; color=&quot;#000000&quot;&gt;&lt;i&gt;&lt;sup style=&quot;font-size: 7px;&quot;&gt;(3)&lt;/sup&gt;&lt;/i&gt;&lt;/font&gt;&lt;/div&gt;" style="text;html=1;align=center;verticalAlign=middle;resizable=0;points=[];autosize=1;strokeColor=none;fillColor=none;" vertex="1" parent="rlfNi6pHsEPrAqG3626Q-87">
          <mxGeometry x="6.5" y="125" width="27" height="27" as="geometry" />
        </mxCell>
        <mxCell id="rlfNi6pHsEPrAqG3626Q-233" value="&lt;div&gt;&lt;font data-font-src=&quot;https://fonts.googleapis.com/css?family=Computer+modern&quot; size=&quot;1&quot; face=&quot;Computer modern&quot; color=&quot;#000000&quot;&gt;&lt;i&gt;&lt;sup style=&quot;font-size: 7px;&quot;&gt;(3)&lt;/sup&gt;&lt;/i&gt;&lt;/font&gt;&lt;/div&gt;" style="text;html=1;align=center;verticalAlign=middle;resizable=0;points=[];autosize=1;strokeColor=none;fillColor=none;" vertex="1" parent="rlfNi6pHsEPrAqG3626Q-87">
          <mxGeometry x="6.5" y="45" width="27" height="27" as="geometry" />
        </mxCell>
        <mxCell id="rlfNi6pHsEPrAqG3626Q-234" value="&lt;div&gt;&lt;font data-font-src=&quot;https://fonts.googleapis.com/css?family=Computer+modern&quot; size=&quot;1&quot; face=&quot;Computer modern&quot; color=&quot;#000000&quot;&gt;&lt;i&gt;&lt;sup style=&quot;font-size: 7px;&quot;&gt;(3)&lt;/sup&gt;&lt;/i&gt;&lt;/font&gt;&lt;/div&gt;" style="text;html=1;align=center;verticalAlign=middle;resizable=0;points=[];autosize=1;strokeColor=none;fillColor=none;" vertex="1" parent="rlfNi6pHsEPrAqG3626Q-87">
          <mxGeometry x="6.5" width="27" height="27" as="geometry" />
        </mxCell>
        <mxCell id="rlfNi6pHsEPrAqG3626Q-281" value="&lt;font style=&quot;font-size: 18px;&quot; face=&quot;Computer modern&quot; color=&quot;#000000&quot;&gt;&lt;i&gt;a&lt;sub&gt;1&lt;/sub&gt;&lt;/i&gt;&lt;/font&gt;" style="ellipse;whiteSpace=wrap;html=1;aspect=fixed;fillColor=#99c1f1;strokeColor=#000000;" vertex="1" parent="rlfNi6pHsEPrAqG3626Q-87">
          <mxGeometry width="36" height="36" as="geometry" />
        </mxCell>
        <mxCell id="rlfNi6pHsEPrAqG3626Q-287" value="&lt;font style=&quot;font-size: 18px;&quot; face=&quot;Computer modern&quot; color=&quot;#000000&quot;&gt;&lt;i&gt;a&lt;sub&gt;2N&lt;/sub&gt;&lt;/i&gt;&lt;/font&gt;" style="ellipse;whiteSpace=wrap;html=1;aspect=fixed;fillColor=#99c1f1;strokeColor=#000000;" vertex="1" parent="rlfNi6pHsEPrAqG3626Q-87">
          <mxGeometry y="125" width="36" height="36" as="geometry" />
        </mxCell>
        <mxCell id="rlfNi6pHsEPrAqG3626Q-291" value="&lt;font style=&quot;font-size: 18px;&quot; face=&quot;Computer modern&quot; color=&quot;#000000&quot;&gt;&lt;i&gt;a&lt;sub&gt;2&lt;/sub&gt;&lt;/i&gt;&lt;/font&gt;" style="ellipse;whiteSpace=wrap;html=1;aspect=fixed;fillColor=#99c1f1;strokeColor=#000000;" vertex="1" parent="rlfNi6pHsEPrAqG3626Q-87">
          <mxGeometry y="45" width="36" height="36" as="geometry" />
        </mxCell>
        <mxCell id="rlfNi6pHsEPrAqG3626Q-632" value="&lt;div style=&quot;font-size: 13px;&quot;&gt;&lt;font data-font-src=&quot;https://fonts.googleapis.com/css?family=Computer+modern&quot; size=&quot;1&quot; face=&quot;Computer modern&quot; color=&quot;#000000&quot;&gt;&lt;i&gt;(3)&lt;/i&gt;&lt;/font&gt;&lt;/div&gt;" style="text;html=1;align=center;verticalAlign=middle;resizable=0;points=[];autosize=1;strokeColor=none;fillColor=none;" vertex="1" parent="rlfNi6pHsEPrAqG3626Q-87">
          <mxGeometry x="6.5" y="-5" width="31" height="28" as="geometry" />
        </mxCell>
        <mxCell id="rlfNi6pHsEPrAqG3626Q-633" value="&lt;div style=&quot;font-size: 13px;&quot;&gt;&lt;font data-font-src=&quot;https://fonts.googleapis.com/css?family=Computer+modern&quot; size=&quot;1&quot; face=&quot;Computer modern&quot; color=&quot;#000000&quot;&gt;&lt;i&gt;(3)&lt;/i&gt;&lt;/font&gt;&lt;/div&gt;" style="text;html=1;align=center;verticalAlign=middle;resizable=0;points=[];autosize=1;strokeColor=none;fillColor=none;" vertex="1" parent="rlfNi6pHsEPrAqG3626Q-87">
          <mxGeometry x="6.5" y="41" width="31" height="28" as="geometry" />
        </mxCell>
        <mxCell id="rlfNi6pHsEPrAqG3626Q-634" value="&lt;div style=&quot;font-size: 13px;&quot;&gt;&lt;font data-font-src=&quot;https://fonts.googleapis.com/css?family=Computer+modern&quot; size=&quot;1&quot; face=&quot;Computer modern&quot; color=&quot;#000000&quot;&gt;&lt;i&gt;(3)&lt;/i&gt;&lt;/font&gt;&lt;/div&gt;" style="text;html=1;align=center;verticalAlign=middle;resizable=0;points=[];autosize=1;strokeColor=none;fillColor=none;" vertex="1" parent="rlfNi6pHsEPrAqG3626Q-87">
          <mxGeometry x="5" y="121" width="31" height="28" as="geometry" />
        </mxCell>
        <mxCell id="rlfNi6pHsEPrAqG3626Q-92" value="" style="endArrow=classic;html=1;rounded=0;entryX=0.059;entryY=0.242;entryDx=0;entryDy=0;strokeColor=#1c71d8;endSize=3;entryPerimeter=0;" edge="1" parent="rlfNi6pHsEPrAqG3626Q-86" target="rlfNi6pHsEPrAqG3626Q-89">
          <mxGeometry width="50" height="50" relative="1" as="geometry">
            <mxPoint y="18" as="sourcePoint" />
            <mxPoint x="50" y="-32" as="targetPoint" />
          </mxGeometry>
        </mxCell>
        <mxCell id="rlfNi6pHsEPrAqG3626Q-93" value="" style="endArrow=classic;html=1;rounded=0;entryX=0.018;entryY=0.317;entryDx=0;entryDy=0;strokeColor=#1c71d8;endSize=3;entryPerimeter=0;" edge="1" parent="rlfNi6pHsEPrAqG3626Q-86" target="rlfNi6pHsEPrAqG3626Q-90">
          <mxGeometry width="50" height="50" relative="1" as="geometry">
            <mxPoint y="65" as="sourcePoint" />
            <mxPoint x="42.5" y="110" as="targetPoint" />
          </mxGeometry>
        </mxCell>
        <mxCell id="rlfNi6pHsEPrAqG3626Q-95" value="" style="endArrow=classic;html=1;rounded=0;entryX=0.021;entryY=0.733;entryDx=0;entryDy=0;entryPerimeter=0;strokeColor=#1a5fb4;endSize=3;" edge="1" parent="rlfNi6pHsEPrAqG3626Q-86" target="rlfNi6pHsEPrAqG3626Q-88">
          <mxGeometry width="50" height="50" relative="1" as="geometry">
            <mxPoint y="63" as="sourcePoint" />
            <mxPoint x="46.5" y="-55" as="targetPoint" />
          </mxGeometry>
        </mxCell>
        <mxCell id="rlfNi6pHsEPrAqG3626Q-96" value="" style="endArrow=classic;html=1;rounded=0;strokeColor=#1c71d8;endSize=3;entryX=0.147;entryY=0.127;entryDx=0;entryDy=0;entryPerimeter=0;" edge="1" parent="rlfNi6pHsEPrAqG3626Q-86" target="rlfNi6pHsEPrAqG3626Q-90">
          <mxGeometry width="50" height="50" relative="1" as="geometry">
            <mxPoint y="18" as="sourcePoint" />
            <mxPoint x="54.5" y="118" as="targetPoint" />
          </mxGeometry>
        </mxCell>
        <mxCell id="rlfNi6pHsEPrAqG3626Q-97" style="edgeStyle=orthogonalEdgeStyle;rounded=0;orthogonalLoop=1;jettySize=auto;html=1;entryX=0;entryY=0.5;entryDx=0;entryDy=0;strokeColor=#1c71d8;endSize=3;" edge="1" parent="rlfNi6pHsEPrAqG3626Q-86">
          <mxGeometry relative="1" as="geometry">
            <mxPoint x="-2" y="143" as="sourcePoint" />
            <mxPoint x="42.5" y="142.95" as="targetPoint" />
          </mxGeometry>
        </mxCell>
        <mxCell id="rlfNi6pHsEPrAqG3626Q-117" style="edgeStyle=orthogonalEdgeStyle;rounded=0;orthogonalLoop=1;jettySize=auto;html=1;entryX=0;entryY=0.5;entryDx=0;entryDy=0;strokeColor=#1c71d8;endSize=3;" edge="1" parent="rlfNi6pHsEPrAqG3626Q-86">
          <mxGeometry relative="1" as="geometry">
            <mxPoint y="18" as="sourcePoint" />
            <mxPoint x="42" y="18" as="targetPoint" />
          </mxGeometry>
        </mxCell>
        <mxCell id="rlfNi6pHsEPrAqG3626Q-118" style="edgeStyle=orthogonalEdgeStyle;rounded=0;orthogonalLoop=1;jettySize=auto;html=1;strokeColor=#1c71d8;endSize=3;" edge="1" parent="rlfNi6pHsEPrAqG3626Q-86">
          <mxGeometry relative="1" as="geometry">
            <mxPoint x="0.5" y="64" as="sourcePoint" />
            <mxPoint x="42.5" y="64" as="targetPoint" />
          </mxGeometry>
        </mxCell>
        <mxCell id="rlfNi6pHsEPrAqG3626Q-99" style="edgeStyle=orthogonalEdgeStyle;rounded=0;orthogonalLoop=1;jettySize=auto;html=1;entryX=0;entryY=0.5;entryDx=0;entryDy=0;strokeColor=#c0bfbc;endSize=3;" edge="1" parent="rlfNi6pHsEPrAqG3626Q-85" target="rlfNi6pHsEPrAqG3626Q-88">
          <mxGeometry relative="1" as="geometry" />
        </mxCell>
        <mxCell id="rlfNi6pHsEPrAqG3626Q-100" style="edgeStyle=orthogonalEdgeStyle;rounded=0;orthogonalLoop=1;jettySize=auto;html=1;strokeColor=#c0bfbc;endSize=3;" edge="1" parent="rlfNi6pHsEPrAqG3626Q-85" target="rlfNi6pHsEPrAqG3626Q-89">
          <mxGeometry relative="1" as="geometry" />
        </mxCell>
        <mxCell id="rlfNi6pHsEPrAqG3626Q-101" value="" style="group" vertex="1" connectable="0" parent="rlfNi6pHsEPrAqG3626Q-85">
          <mxGeometry x="79.5" width="80.5" height="161" as="geometry" />
        </mxCell>
        <mxCell id="rlfNi6pHsEPrAqG3626Q-102" value="" style="group" vertex="1" connectable="0" parent="rlfNi6pHsEPrAqG3626Q-101">
          <mxGeometry x="42.5" width="38" height="161" as="geometry" />
        </mxCell>
        <mxCell id="rlfNi6pHsEPrAqG3626Q-103" value="" style="ellipse;whiteSpace=wrap;html=1;aspect=fixed;fillColor=#99c1f1;strokeColor=#000000;" vertex="1" parent="rlfNi6pHsEPrAqG3626Q-102">
          <mxGeometry width="36" height="36" as="geometry" />
        </mxCell>
        <mxCell id="rlfNi6pHsEPrAqG3626Q-104" value="" style="ellipse;whiteSpace=wrap;html=1;aspect=fixed;fillColor=#99c1f1;strokeColor=#000000;" vertex="1" parent="rlfNi6pHsEPrAqG3626Q-102">
          <mxGeometry y="45" width="36" height="36" as="geometry" />
        </mxCell>
        <mxCell id="rlfNi6pHsEPrAqG3626Q-106" value="" style="endArrow=none;dashed=1;html=1;strokeWidth=2;rounded=0;strokeColor=#000000;" edge="1" parent="rlfNi6pHsEPrAqG3626Q-102">
          <mxGeometry width="50" height="50" relative="1" as="geometry">
            <mxPoint x="17.75999999999999" y="117" as="sourcePoint" />
            <mxPoint x="17.75999999999999" y="81" as="targetPoint" />
          </mxGeometry>
        </mxCell>
        <mxCell id="rlfNi6pHsEPrAqG3626Q-105" value="" style="ellipse;whiteSpace=wrap;html=1;aspect=fixed;fillColor=#99c1f1;strokeColor=#000000;" vertex="1" parent="rlfNi6pHsEPrAqG3626Q-102">
          <mxGeometry y="125" width="36" height="36" as="geometry" />
        </mxCell>
        <mxCell id="rlfNi6pHsEPrAqG3626Q-235" value="&lt;font face=&quot;Computer modern&quot; color=&quot;#000000&quot;&gt;&lt;i&gt;a&lt;sub&gt;1&lt;/sub&gt;&lt;/i&gt;&lt;/font&gt;" style="ellipse;whiteSpace=wrap;html=1;aspect=fixed;fillColor=#99c1f1;strokeColor=#000000;" vertex="1" parent="rlfNi6pHsEPrAqG3626Q-102">
          <mxGeometry width="36" height="36" as="geometry" />
        </mxCell>
        <mxCell id="rlfNi6pHsEPrAqG3626Q-237" value="&lt;font data-font-src=&quot;https://fonts.googleapis.com/css?family=Computer+modern&quot; face=&quot;Computer modern&quot;&gt;&lt;i&gt;&lt;font color=&quot;#000000&quot;&gt;a&lt;sub&gt;2&lt;/sub&gt;&lt;/font&gt;&lt;/i&gt;&lt;/font&gt;" style="ellipse;whiteSpace=wrap;html=1;aspect=fixed;fillColor=#99c1f1;strokeColor=#000000;" vertex="1" parent="rlfNi6pHsEPrAqG3626Q-102">
          <mxGeometry y="45" width="36" height="36" as="geometry" />
        </mxCell>
        <mxCell id="rlfNi6pHsEPrAqG3626Q-238" value="&lt;font data-font-src=&quot;https://fonts.googleapis.com/css?family=Computer+modern&quot; face=&quot;Computer modern&quot; color=&quot;#000000&quot;&gt;&lt;i&gt;a&lt;sub&gt;2N&lt;/sub&gt;&lt;/i&gt;&lt;/font&gt;" style="ellipse;whiteSpace=wrap;html=1;aspect=fixed;fillColor=#99c1f1;strokeColor=#000000;" vertex="1" parent="rlfNi6pHsEPrAqG3626Q-102">
          <mxGeometry y="125" width="36" height="36" as="geometry" />
        </mxCell>
        <mxCell id="rlfNi6pHsEPrAqG3626Q-239" value="&lt;div&gt;&lt;font data-font-src=&quot;https://fonts.googleapis.com/css?family=Computer+modern&quot; size=&quot;1&quot; face=&quot;Computer modern&quot; color=&quot;#000000&quot;&gt;&lt;i&gt;&lt;sup style=&quot;font-size: 7px;&quot;&gt;(4)&lt;/sup&gt;&lt;/i&gt;&lt;/font&gt;&lt;/div&gt;" style="text;html=1;align=center;verticalAlign=middle;resizable=0;points=[];autosize=1;strokeColor=none;fillColor=none;" vertex="1" parent="rlfNi6pHsEPrAqG3626Q-102">
          <mxGeometry x="7" width="27" height="27" as="geometry" />
        </mxCell>
        <mxCell id="rlfNi6pHsEPrAqG3626Q-240" value="&lt;div&gt;&lt;font data-font-src=&quot;https://fonts.googleapis.com/css?family=Computer+modern&quot; size=&quot;1&quot; face=&quot;Computer modern&quot; color=&quot;#000000&quot;&gt;&lt;i&gt;&lt;sup style=&quot;font-size: 7px;&quot;&gt;(4)&lt;/sup&gt;&lt;/i&gt;&lt;/font&gt;&lt;/div&gt;" style="text;html=1;align=center;verticalAlign=middle;resizable=0;points=[];autosize=1;strokeColor=none;fillColor=none;" vertex="1" parent="rlfNi6pHsEPrAqG3626Q-102">
          <mxGeometry x="7" y="45" width="27" height="27" as="geometry" />
        </mxCell>
        <mxCell id="rlfNi6pHsEPrAqG3626Q-241" value="&lt;div&gt;&lt;font data-font-src=&quot;https://fonts.googleapis.com/css?family=Computer+modern&quot; size=&quot;1&quot; face=&quot;Computer modern&quot; color=&quot;#000000&quot;&gt;&lt;i&gt;&lt;sup style=&quot;font-size: 7px;&quot;&gt;(4)&lt;/sup&gt;&lt;/i&gt;&lt;/font&gt;&lt;/div&gt;" style="text;html=1;align=center;verticalAlign=middle;resizable=0;points=[];autosize=1;strokeColor=none;fillColor=none;" vertex="1" parent="rlfNi6pHsEPrAqG3626Q-102">
          <mxGeometry x="7" y="125" width="27" height="27" as="geometry" />
        </mxCell>
        <mxCell id="rlfNi6pHsEPrAqG3626Q-282" value="&lt;font style=&quot;font-size: 18px;&quot; face=&quot;Computer modern&quot; color=&quot;#000000&quot;&gt;&lt;i&gt;a&lt;sub&gt;1&lt;/sub&gt;&lt;/i&gt;&lt;/font&gt;" style="ellipse;whiteSpace=wrap;html=1;aspect=fixed;fillColor=#99c1f1;strokeColor=#000000;" vertex="1" parent="rlfNi6pHsEPrAqG3626Q-102">
          <mxGeometry width="36" height="36" as="geometry" />
        </mxCell>
        <mxCell id="rlfNi6pHsEPrAqG3626Q-288" value="&lt;font style=&quot;font-size: 18px;&quot; face=&quot;Computer modern&quot; color=&quot;#000000&quot;&gt;&lt;i&gt;a&lt;sub&gt;2N&lt;/sub&gt;&lt;/i&gt;&lt;/font&gt;" style="ellipse;whiteSpace=wrap;html=1;aspect=fixed;fillColor=#99c1f1;strokeColor=#000000;" vertex="1" parent="rlfNi6pHsEPrAqG3626Q-102">
          <mxGeometry y="125" width="36" height="36" as="geometry" />
        </mxCell>
        <mxCell id="rlfNi6pHsEPrAqG3626Q-292" value="&lt;font style=&quot;font-size: 18px;&quot; face=&quot;Computer modern&quot; color=&quot;#000000&quot;&gt;&lt;i&gt;a&lt;sub&gt;2&lt;/sub&gt;&lt;/i&gt;&lt;/font&gt;" style="ellipse;whiteSpace=wrap;html=1;aspect=fixed;fillColor=#99c1f1;strokeColor=#000000;" vertex="1" parent="rlfNi6pHsEPrAqG3626Q-102">
          <mxGeometry y="45" width="36" height="36" as="geometry" />
        </mxCell>
        <mxCell id="rlfNi6pHsEPrAqG3626Q-635" value="&lt;div style=&quot;font-size: 13px;&quot;&gt;&lt;font data-font-src=&quot;https://fonts.googleapis.com/css?family=Computer+modern&quot; size=&quot;1&quot; face=&quot;Computer modern&quot; color=&quot;#000000&quot;&gt;&lt;i&gt;(4)&lt;/i&gt;&lt;/font&gt;&lt;/div&gt;" style="text;html=1;align=center;verticalAlign=middle;resizable=0;points=[];autosize=1;strokeColor=none;fillColor=none;" vertex="1" parent="rlfNi6pHsEPrAqG3626Q-102">
          <mxGeometry x="7" y="-5" width="31" height="28" as="geometry" />
        </mxCell>
        <mxCell id="rlfNi6pHsEPrAqG3626Q-636" value="&lt;div style=&quot;font-size: 13px;&quot;&gt;&lt;font data-font-src=&quot;https://fonts.googleapis.com/css?family=Computer+modern&quot; size=&quot;1&quot; face=&quot;Computer modern&quot; color=&quot;#000000&quot;&gt;&lt;i&gt;(4)&lt;/i&gt;&lt;/font&gt;&lt;/div&gt;" style="text;html=1;align=center;verticalAlign=middle;resizable=0;points=[];autosize=1;strokeColor=none;fillColor=none;" vertex="1" parent="rlfNi6pHsEPrAqG3626Q-102">
          <mxGeometry x="7" y="41" width="31" height="28" as="geometry" />
        </mxCell>
        <mxCell id="rlfNi6pHsEPrAqG3626Q-637" value="&lt;div style=&quot;font-size: 13px;&quot;&gt;&lt;font data-font-src=&quot;https://fonts.googleapis.com/css?family=Computer+modern&quot; size=&quot;1&quot; face=&quot;Computer modern&quot; color=&quot;#000000&quot;&gt;&lt;i&gt;(4)&lt;/i&gt;&lt;/font&gt;&lt;/div&gt;" style="text;html=1;align=center;verticalAlign=middle;resizable=0;points=[];autosize=1;strokeColor=none;fillColor=none;" vertex="1" parent="rlfNi6pHsEPrAqG3626Q-102">
          <mxGeometry x="5" y="121" width="31" height="28" as="geometry" />
        </mxCell>
        <mxCell id="rlfNi6pHsEPrAqG3626Q-107" value="" style="endArrow=classic;html=1;rounded=0;entryX=0.059;entryY=0.242;entryDx=0;entryDy=0;strokeColor=#1c71d8;endSize=3;entryPerimeter=0;" edge="1" parent="rlfNi6pHsEPrAqG3626Q-101" target="rlfNi6pHsEPrAqG3626Q-104">
          <mxGeometry width="50" height="50" relative="1" as="geometry">
            <mxPoint y="18" as="sourcePoint" />
            <mxPoint x="50" y="-32" as="targetPoint" />
          </mxGeometry>
        </mxCell>
        <mxCell id="rlfNi6pHsEPrAqG3626Q-108" value="" style="endArrow=classic;html=1;rounded=0;entryX=0.018;entryY=0.317;entryDx=0;entryDy=0;strokeColor=#1c71d8;endSize=3;entryPerimeter=0;" edge="1" parent="rlfNi6pHsEPrAqG3626Q-101" target="rlfNi6pHsEPrAqG3626Q-105">
          <mxGeometry width="50" height="50" relative="1" as="geometry">
            <mxPoint y="65" as="sourcePoint" />
            <mxPoint x="42.5" y="110" as="targetPoint" />
          </mxGeometry>
        </mxCell>
        <mxCell id="rlfNi6pHsEPrAqG3626Q-109" value="" style="endArrow=classic;html=1;rounded=0;entryX=0.154;entryY=0.886;entryDx=0;entryDy=0;entryPerimeter=0;strokeColor=#1c71d8;endSize=3;" edge="1" parent="rlfNi6pHsEPrAqG3626Q-101" target="rlfNi6pHsEPrAqG3626Q-103">
          <mxGeometry width="50" height="50" relative="1" as="geometry">
            <mxPoint x="0.5" y="143" as="sourcePoint" />
            <mxPoint x="47.5" y="209" as="targetPoint" />
          </mxGeometry>
        </mxCell>
        <mxCell id="rlfNi6pHsEPrAqG3626Q-110" value="" style="endArrow=classic;html=1;rounded=0;entryX=0.021;entryY=0.733;entryDx=0;entryDy=0;entryPerimeter=0;strokeColor=#1c71d8;endSize=3;" edge="1" parent="rlfNi6pHsEPrAqG3626Q-101" target="rlfNi6pHsEPrAqG3626Q-103">
          <mxGeometry width="50" height="50" relative="1" as="geometry">
            <mxPoint y="63" as="sourcePoint" />
            <mxPoint x="46.5" y="-55" as="targetPoint" />
          </mxGeometry>
        </mxCell>
        <mxCell id="rlfNi6pHsEPrAqG3626Q-111" value="" style="endArrow=classic;html=1;rounded=0;strokeColor=#1c71d8;endSize=3;entryX=0.147;entryY=0.127;entryDx=0;entryDy=0;entryPerimeter=0;" edge="1" parent="rlfNi6pHsEPrAqG3626Q-101" target="rlfNi6pHsEPrAqG3626Q-105">
          <mxGeometry width="50" height="50" relative="1" as="geometry">
            <mxPoint y="18" as="sourcePoint" />
            <mxPoint x="54.5" y="118" as="targetPoint" />
          </mxGeometry>
        </mxCell>
        <mxCell id="rlfNi6pHsEPrAqG3626Q-112" style="edgeStyle=orthogonalEdgeStyle;rounded=0;orthogonalLoop=1;jettySize=auto;html=1;entryX=0;entryY=0.5;entryDx=0;entryDy=0;strokeColor=#1c71d8;endSize=3;" edge="1" parent="rlfNi6pHsEPrAqG3626Q-101">
          <mxGeometry relative="1" as="geometry">
            <mxPoint x="0.5" y="142.95" as="sourcePoint" />
            <mxPoint x="42.5" y="142.95" as="targetPoint" />
          </mxGeometry>
        </mxCell>
        <mxCell id="rlfNi6pHsEPrAqG3626Q-113" value="" style="endArrow=classic;html=1;rounded=0;strokeColor=#1c71d8;endSize=3;entryX=0.046;entryY=0.735;entryDx=0;entryDy=0;entryPerimeter=0;" edge="1" parent="rlfNi6pHsEPrAqG3626Q-101" target="rlfNi6pHsEPrAqG3626Q-104">
          <mxGeometry width="50" height="50" relative="1" as="geometry">
            <mxPoint y="143" as="sourcePoint" />
            <mxPoint x="84" y="81" as="targetPoint" />
          </mxGeometry>
        </mxCell>
        <mxCell id="rlfNi6pHsEPrAqG3626Q-114" style="edgeStyle=orthogonalEdgeStyle;rounded=0;orthogonalLoop=1;jettySize=auto;html=1;entryX=0;entryY=0.5;entryDx=0;entryDy=0;strokeColor=#1c71d8;endSize=3;" edge="1" parent="rlfNi6pHsEPrAqG3626Q-101">
          <mxGeometry relative="1" as="geometry">
            <mxPoint y="18" as="sourcePoint" />
            <mxPoint x="42" y="18" as="targetPoint" />
          </mxGeometry>
        </mxCell>
        <mxCell id="rlfNi6pHsEPrAqG3626Q-115" style="edgeStyle=orthogonalEdgeStyle;rounded=0;orthogonalLoop=1;jettySize=auto;html=1;strokeColor=#1c71d8;endSize=3;" edge="1" parent="rlfNi6pHsEPrAqG3626Q-101">
          <mxGeometry relative="1" as="geometry">
            <mxPoint y="64" as="sourcePoint" />
            <mxPoint x="42" y="64" as="targetPoint" />
          </mxGeometry>
        </mxCell>
        <mxCell id="rlfNi6pHsEPrAqG3626Q-134" value="" style="group" vertex="1" connectable="0" parent="rlfNi6pHsEPrAqG3626Q-272">
          <mxGeometry x="596" y="99" width="98" height="161" as="geometry" />
        </mxCell>
        <mxCell id="rlfNi6pHsEPrAqG3626Q-135" value="" style="group" vertex="1" connectable="0" parent="rlfNi6pHsEPrAqG3626Q-134">
          <mxGeometry x="42.5" width="55.5" height="161" as="geometry" />
        </mxCell>
        <mxCell id="rlfNi6pHsEPrAqG3626Q-161" value="" style="endArrow=none;dashed=1;html=1;strokeWidth=2;rounded=0;strokeColor=#000000;" edge="1" parent="rlfNi6pHsEPrAqG3626Q-135">
          <mxGeometry width="50" height="50" relative="1" as="geometry">
            <mxPoint x="27.459999999999965" y="33" as="sourcePoint" />
            <mxPoint x="27.459999999999965" y="-3" as="targetPoint" />
          </mxGeometry>
        </mxCell>
        <mxCell id="rlfNi6pHsEPrAqG3626Q-139" value="" style="endArrow=none;dashed=1;html=1;strokeWidth=2;rounded=0;strokeColor=#000000;" edge="1" parent="rlfNi6pHsEPrAqG3626Q-135">
          <mxGeometry width="50" height="50" relative="1" as="geometry">
            <mxPoint x="27.46" y="165" as="sourcePoint" />
            <mxPoint x="27.46" y="129" as="targetPoint" />
          </mxGeometry>
        </mxCell>
        <mxCell id="rlfNi6pHsEPrAqG3626Q-170" value="" style="endArrow=classic;html=1;rounded=0;strokeColor=#f66151;endSize=3;entryX=0.082;entryY=0.191;entryDx=0;entryDy=0;entryPerimeter=0;" edge="1" parent="rlfNi6pHsEPrAqG3626Q-135" target="rlfNi6pHsEPrAqG3626Q-163">
          <mxGeometry width="50" height="50" relative="1" as="geometry">
            <mxPoint x="-42.5" y="18" as="sourcePoint" />
            <mxPoint x="25.5" y="26" as="targetPoint" />
          </mxGeometry>
        </mxCell>
        <mxCell id="rlfNi6pHsEPrAqG3626Q-140" value="" style="endArrow=classic;html=1;rounded=0;entryX=0.059;entryY=0.242;entryDx=0;entryDy=0;strokeColor=#f66151;endSize=3;entryPerimeter=0;" edge="1" parent="rlfNi6pHsEPrAqG3626Q-134" target="rlfNi6pHsEPrAqG3626Q-137">
          <mxGeometry width="50" height="50" relative="1" as="geometry">
            <mxPoint y="18" as="sourcePoint" />
            <mxPoint x="50" y="-32" as="targetPoint" />
          </mxGeometry>
        </mxCell>
        <mxCell id="rlfNi6pHsEPrAqG3626Q-141" value="" style="endArrow=classic;html=1;rounded=0;entryX=0.018;entryY=0.317;entryDx=0;entryDy=0;strokeColor=#f66151;endSize=3;entryPerimeter=0;" edge="1" parent="rlfNi6pHsEPrAqG3626Q-134" target="rlfNi6pHsEPrAqG3626Q-138">
          <mxGeometry width="50" height="50" relative="1" as="geometry">
            <mxPoint y="65" as="sourcePoint" />
            <mxPoint x="42.5" y="110" as="targetPoint" />
          </mxGeometry>
        </mxCell>
        <mxCell id="rlfNi6pHsEPrAqG3626Q-142" value="" style="endArrow=classic;html=1;rounded=0;entryX=0.154;entryY=0.886;entryDx=0;entryDy=0;entryPerimeter=0;strokeColor=#f66151;endSize=3;" edge="1" parent="rlfNi6pHsEPrAqG3626Q-134" target="rlfNi6pHsEPrAqG3626Q-136">
          <mxGeometry width="50" height="50" relative="1" as="geometry">
            <mxPoint y="144" as="sourcePoint" />
            <mxPoint x="47.5" y="209" as="targetPoint" />
          </mxGeometry>
        </mxCell>
        <mxCell id="rlfNi6pHsEPrAqG3626Q-144" value="" style="endArrow=classic;html=1;rounded=0;strokeColor=#f66151;endSize=3;entryX=0.147;entryY=0.127;entryDx=0;entryDy=0;entryPerimeter=0;" edge="1" parent="rlfNi6pHsEPrAqG3626Q-134" target="rlfNi6pHsEPrAqG3626Q-138">
          <mxGeometry width="50" height="50" relative="1" as="geometry">
            <mxPoint y="18" as="sourcePoint" />
            <mxPoint x="54.5" y="118" as="targetPoint" />
          </mxGeometry>
        </mxCell>
        <mxCell id="rlfNi6pHsEPrAqG3626Q-146" value="" style="endArrow=classic;html=1;rounded=0;strokeColor=#f66151;endSize=3;entryX=0.046;entryY=0.735;entryDx=0;entryDy=0;entryPerimeter=0;" edge="1" parent="rlfNi6pHsEPrAqG3626Q-134" target="rlfNi6pHsEPrAqG3626Q-137">
          <mxGeometry width="50" height="50" relative="1" as="geometry">
            <mxPoint y="143" as="sourcePoint" />
            <mxPoint x="84" y="81" as="targetPoint" />
          </mxGeometry>
        </mxCell>
        <mxCell id="rlfNi6pHsEPrAqG3626Q-165" value="" style="endArrow=classic;html=1;rounded=0;strokeColor=#f66151;endSize=3;entryX=0;entryY=0.5;entryDx=0;entryDy=0;" edge="1" parent="rlfNi6pHsEPrAqG3626Q-134" target="rlfNi6pHsEPrAqG3626Q-138">
          <mxGeometry width="50" height="50" relative="1" as="geometry">
            <mxPoint y="143" as="sourcePoint" />
            <mxPoint x="57" y="294" as="targetPoint" />
          </mxGeometry>
        </mxCell>
        <mxCell id="rlfNi6pHsEPrAqG3626Q-166" value="" style="endArrow=classic;html=1;rounded=0;strokeColor=#f66151;endSize=3;" edge="1" parent="rlfNi6pHsEPrAqG3626Q-134">
          <mxGeometry width="50" height="50" relative="1" as="geometry">
            <mxPoint y="65" as="sourcePoint" />
            <mxPoint x="50" y="101" as="targetPoint" />
          </mxGeometry>
        </mxCell>
        <mxCell id="rlfNi6pHsEPrAqG3626Q-168" value="" style="endArrow=classic;html=1;rounded=0;strokeColor=#f66151;endSize=3;entryX=0;entryY=0.5;entryDx=0;entryDy=0;" edge="1" parent="rlfNi6pHsEPrAqG3626Q-134" target="rlfNi6pHsEPrAqG3626Q-137">
          <mxGeometry width="50" height="50" relative="1" as="geometry">
            <mxPoint y="65" as="sourcePoint" />
            <mxPoint x="57" y="215" as="targetPoint" />
          </mxGeometry>
        </mxCell>
        <mxCell id="rlfNi6pHsEPrAqG3626Q-150" value="&lt;b&gt;&lt;font style=&quot;font-size: 20px;&quot; data-font-src=&quot;https://fonts.googleapis.com/css?family=computer+modern&quot; face=&quot;computer modern&quot; color=&quot;#000000&quot;&gt;&lt;i&gt;Capas ocultas&lt;/i&gt;&lt;/font&gt;&lt;/b&gt;" style="text;html=1;strokeColor=none;fillColor=none;align=center;verticalAlign=middle;whiteSpace=wrap;rounded=0;" vertex="1" parent="rlfNi6pHsEPrAqG3626Q-272">
          <mxGeometry x="330" y="16" width="170" height="30" as="geometry" />
        </mxCell>
        <mxCell id="rlfNi6pHsEPrAqG3626Q-151" value="&lt;div style=&quot;font-size: 18px;&quot;&gt;&lt;i&gt;&lt;b&gt;&lt;font style=&quot;font-size: 18px;&quot; data-font-src=&quot;https://fonts.googleapis.com/css?family=computer+modern&quot; face=&quot;computer modern&quot; color=&quot;#000000&quot;&gt;Capa de&lt;/font&gt;&lt;/b&gt;&lt;/i&gt;&lt;/div&gt;&lt;div style=&quot;font-size: 18px;&quot;&gt;&lt;i&gt;&lt;b&gt;&lt;font style=&quot;font-size: 18px;&quot; data-font-src=&quot;https://fonts.googleapis.com/css?family=computer+modern&quot; face=&quot;computer modern&quot; color=&quot;#000000&quot;&gt;entrada&lt;br&gt;&lt;/font&gt;&lt;/b&gt;&lt;/i&gt;&lt;/div&gt;" style="text;html=1;strokeColor=none;fillColor=none;align=center;verticalAlign=middle;whiteSpace=wrap;rounded=0;" vertex="1" parent="rlfNi6pHsEPrAqG3626Q-272">
          <mxGeometry x="137" y="16" width="88" height="30" as="geometry" />
        </mxCell>
        <mxCell id="rlfNi6pHsEPrAqG3626Q-152" value="&lt;div style=&quot;font-size: 18px;&quot;&gt;&lt;font style=&quot;font-size: 18px;&quot;&gt;&lt;i&gt;&lt;b&gt;&lt;font style=&quot;font-size: 18px;&quot; data-font-src=&quot;https://fonts.googleapis.com/css?family=computer+modern&quot; face=&quot;computer modern&quot; color=&quot;#000000&quot;&gt;Capa de&lt;/font&gt;&lt;/b&gt;&lt;/i&gt;&lt;/font&gt;&lt;/div&gt;&lt;div style=&quot;font-size: 18px;&quot;&gt;&lt;font style=&quot;font-size: 18px;&quot;&gt;&lt;i&gt;&lt;b&gt;&lt;font style=&quot;font-size: 18px;&quot; data-font-src=&quot;https://fonts.googleapis.com/css?family=computer+modern&quot; face=&quot;computer modern&quot; color=&quot;#000000&quot;&gt;salida&lt;/font&gt;&lt;/b&gt;&lt;/i&gt;&lt;/font&gt;&lt;/div&gt;" style="text;html=1;strokeColor=none;fillColor=none;align=center;verticalAlign=middle;whiteSpace=wrap;rounded=0;" vertex="1" parent="rlfNi6pHsEPrAqG3626Q-272">
          <mxGeometry x="624" y="16" width="88" height="30" as="geometry" />
        </mxCell>
        <mxCell id="rlfNi6pHsEPrAqG3626Q-46" value="" style="endArrow=classic;html=1;rounded=0;entryX=0.018;entryY=0.317;entryDx=0;entryDy=0;strokeColor=#2ec27e;endSize=3;entryPerimeter=0;exitX=1;exitY=0.5;exitDx=0;exitDy=0;" edge="1" parent="rlfNi6pHsEPrAqG3626Q-272" source="rlfNi6pHsEPrAqG3626Q-172" target="rlfNi6pHsEPrAqG3626Q-9">
          <mxGeometry width="50" height="50" relative="1" as="geometry">
            <mxPoint x="199.5" y="160" as="sourcePoint" />
            <mxPoint x="242" y="207" as="targetPoint" />
          </mxGeometry>
        </mxCell>
        <mxCell id="rlfNi6pHsEPrAqG3626Q-131" value="" style="endArrow=classic;html=1;rounded=0;strokeColor=#1c71d8;endSize=3;entryX=0.046;entryY=0.735;entryDx=0;entryDy=0;entryPerimeter=0;exitX=1.006;exitY=0.538;exitDx=0;exitDy=0;exitPerimeter=0;" edge="1" parent="rlfNi6pHsEPrAqG3626Q-272" target="rlfNi6pHsEPrAqG3626Q-122" source="rlfNi6pHsEPrAqG3626Q-105">
          <mxGeometry width="50" height="50" relative="1" as="geometry">
            <mxPoint x="517" y="242" as="sourcePoint" />
            <mxPoint x="601" y="180" as="targetPoint" />
          </mxGeometry>
        </mxCell>
        <mxCell id="rlfNi6pHsEPrAqG3626Q-138" value="&lt;font style=&quot;font-size: 13px;&quot; color=&quot;#000000&quot;&gt;&lt;i style=&quot;font-size: 15px;&quot;&gt;&lt;font style=&quot;font-size: 15px;&quot; data-font-src=&quot;https://fonts.googleapis.com/css?family=Computer+modern&quot; face=&quot;Computer modern&quot;&gt;E&lt;sub&gt;Im&lt;font style=&quot;font-size: 15px;&quot;&gt; N&lt;/font&gt;&lt;/sub&gt;&lt;/font&gt;&lt;/i&gt;&lt;/font&gt;" style="ellipse;whiteSpace=wrap;html=1;aspect=fixed;fillColor=#FFCCCC;strokeColor=#000000;" vertex="1" parent="rlfNi6pHsEPrAqG3626Q-272">
          <mxGeometry x="643" y="266.88" width="44" height="44" as="geometry" />
        </mxCell>
        <mxCell id="rlfNi6pHsEPrAqG3626Q-136" value="&lt;font style=&quot;font-size: 14px;&quot;&gt;&lt;i style=&quot;font-size: 16px;&quot;&gt;&lt;font style=&quot;font-size: 16px;&quot; data-font-src=&quot;https://fonts.googleapis.com/css?family=Computer+modern&quot; face=&quot;Computer modern&quot; color=&quot;#000000&quot;&gt;E&lt;sub&gt;Re &lt;font style=&quot;font-size: 16px;&quot;&gt;1&lt;/font&gt;&lt;/sub&gt;&lt;/font&gt;&lt;/i&gt;&lt;/font&gt;" style="ellipse;whiteSpace=wrap;html=1;aspect=fixed;fillColor=#FFCCCC;strokeColor=#000000;" vertex="1" parent="rlfNi6pHsEPrAqG3626Q-272">
          <mxGeometry x="645" y="55" width="42" height="42" as="geometry" />
        </mxCell>
        <mxCell id="rlfNi6pHsEPrAqG3626Q-143" value="" style="endArrow=classic;html=1;rounded=0;entryX=0.021;entryY=0.733;entryDx=0;entryDy=0;entryPerimeter=0;strokeColor=#f66151;endSize=3;exitX=1.009;exitY=0.56;exitDx=0;exitDy=0;exitPerimeter=0;" edge="1" parent="rlfNi6pHsEPrAqG3626Q-272" target="rlfNi6pHsEPrAqG3626Q-136" source="rlfNi6pHsEPrAqG3626Q-122">
          <mxGeometry width="50" height="50" relative="1" as="geometry">
            <mxPoint x="596" y="162" as="sourcePoint" />
            <mxPoint x="642.5" y="44" as="targetPoint" />
          </mxGeometry>
        </mxCell>
        <mxCell id="rlfNi6pHsEPrAqG3626Q-167" value="" style="endArrow=classic;html=1;rounded=0;strokeColor=#f66151;endSize=3;entryX=0.028;entryY=0.75;entryDx=0;entryDy=0;entryPerimeter=0;" edge="1" parent="rlfNi6pHsEPrAqG3626Q-272" target="rlfNi6pHsEPrAqG3626Q-163">
          <mxGeometry width="50" height="50" relative="1" as="geometry">
            <mxPoint x="596" y="242" as="sourcePoint" />
            <mxPoint x="653" y="393" as="targetPoint" />
          </mxGeometry>
        </mxCell>
        <mxCell id="rlfNi6pHsEPrAqG3626Q-169" value="" style="endArrow=classic;html=1;rounded=0;strokeColor=#f66151;endSize=3;entryX=-0.012;entryY=0.516;entryDx=0;entryDy=0;entryPerimeter=0;" edge="1" parent="rlfNi6pHsEPrAqG3626Q-272" target="rlfNi6pHsEPrAqG3626Q-136">
          <mxGeometry width="50" height="50" relative="1" as="geometry">
            <mxPoint x="596" y="117" as="sourcePoint" />
            <mxPoint x="670" y="51" as="targetPoint" />
          </mxGeometry>
        </mxCell>
        <mxCell id="rlfNi6pHsEPrAqG3626Q-98" value="" style="endArrow=classic;html=1;rounded=0;strokeColor=#1c71d8;endSize=3;entryX=0.046;entryY=0.735;entryDx=0;entryDy=0;entryPerimeter=0;exitX=1;exitY=0.5;exitDx=0;exitDy=0;" edge="1" parent="rlfNi6pHsEPrAqG3626Q-272" target="rlfNi6pHsEPrAqG3626Q-89" source="rlfNi6pHsEPrAqG3626Q-157">
          <mxGeometry width="50" height="50" relative="1" as="geometry">
            <mxPoint x="359" y="241" as="sourcePoint" />
            <mxPoint x="443" y="179" as="targetPoint" />
          </mxGeometry>
        </mxCell>
        <mxCell id="rlfNi6pHsEPrAqG3626Q-94" value="" style="endArrow=classic;html=1;rounded=0;entryX=0.154;entryY=0.886;entryDx=0;entryDy=0;entryPerimeter=0;strokeColor=#1c71d8;endSize=3;exitX=1;exitY=0.5;exitDx=0;exitDy=0;" edge="1" parent="rlfNi6pHsEPrAqG3626Q-272" target="rlfNi6pHsEPrAqG3626Q-88" source="rlfNi6pHsEPrAqG3626Q-157">
          <mxGeometry width="50" height="50" relative="1" as="geometry">
            <mxPoint x="359" y="241" as="sourcePoint" />
            <mxPoint x="406.5" y="307" as="targetPoint" />
          </mxGeometry>
        </mxCell>
        <mxCell id="rlfNi6pHsEPrAqG3626Q-171" value="" style="group" vertex="1" connectable="0" parent="rlfNi6pHsEPrAqG3626Q-272">
          <mxGeometry x="149" y="97.5" width="53.5" height="161" as="geometry" />
        </mxCell>
        <mxCell id="rlfNi6pHsEPrAqG3626Q-173" value="" style="endArrow=none;dashed=1;html=1;strokeWidth=2;rounded=0;strokeColor=#000000;" edge="1" parent="rlfNi6pHsEPrAqG3626Q-171">
          <mxGeometry width="50" height="50" relative="1" as="geometry">
            <mxPoint x="27.499999999999964" y="36" as="sourcePoint" />
            <mxPoint x="27.499999999999964" as="targetPoint" />
          </mxGeometry>
        </mxCell>
        <mxCell id="rlfNi6pHsEPrAqG3626Q-174" value="" style="endArrow=none;dashed=1;html=1;strokeWidth=2;rounded=0;strokeColor=#000000;" edge="1" parent="rlfNi6pHsEPrAqG3626Q-171">
          <mxGeometry width="50" height="50" relative="1" as="geometry">
            <mxPoint x="26.51" y="164.5" as="sourcePoint" />
            <mxPoint x="26.51" y="128.5" as="targetPoint" />
          </mxGeometry>
        </mxCell>
        <mxCell id="rlfNi6pHsEPrAqG3626Q-178" value="&lt;font style=&quot;font-size: 13px;&quot;&gt;&lt;i style=&quot;font-size: 18px;&quot;&gt;&lt;font style=&quot;font-size: 18px;&quot; data-font-src=&quot;https://fonts.googleapis.com/css?family=Computer+modern&quot; face=&quot;Computer modern&quot; color=&quot;#000000&quot;&gt;T&lt;sub&gt;11&lt;/sub&gt;&lt;/font&gt;&lt;/i&gt;&lt;/font&gt;" style="ellipse;whiteSpace=wrap;html=1;aspect=fixed;fillColor=#ccff99;strokeColor=#000000;" vertex="1" parent="rlfNi6pHsEPrAqG3626Q-272">
          <mxGeometry x="154.75" y="53.25" width="45.5" height="45.5" as="geometry" />
        </mxCell>
        <mxCell id="rlfNi6pHsEPrAqG3626Q-209" value="" style="endArrow=classic;html=1;rounded=0;strokeColor=#2ec27e;endSize=3;entryX=0;entryY=1;entryDx=0;entryDy=0;exitX=0.998;exitY=0.564;exitDx=0;exitDy=0;exitPerimeter=0;" edge="1" parent="rlfNi6pHsEPrAqG3626Q-272" source="rlfNi6pHsEPrAqG3626Q-177" target="rlfNi6pHsEPrAqG3626Q-8">
          <mxGeometry width="50" height="50" relative="1" as="geometry">
            <mxPoint x="204" y="292" as="sourcePoint" />
            <mxPoint x="255.5" y="262" as="targetPoint" />
          </mxGeometry>
        </mxCell>
        <mxCell id="rlfNi6pHsEPrAqG3626Q-45" value="" style="endArrow=classic;html=1;rounded=0;entryX=0.059;entryY=0.242;entryDx=0;entryDy=0;strokeColor=#2ec27e;endSize=3;entryPerimeter=0;exitX=1;exitY=0.5;exitDx=0;exitDy=0;" edge="1" parent="rlfNi6pHsEPrAqG3626Q-272" source="rlfNi6pHsEPrAqG3626Q-178" target="rlfNi6pHsEPrAqG3626Q-8">
          <mxGeometry width="50" height="50" relative="1" as="geometry">
            <mxPoint x="199.5" y="115" as="sourcePoint" />
            <mxPoint x="249.5" y="65" as="targetPoint" />
          </mxGeometry>
        </mxCell>
        <mxCell id="rlfNi6pHsEPrAqG3626Q-210" value="" style="endArrow=classic;html=1;rounded=0;entryX=0;entryY=0;entryDx=0;entryDy=0;strokeColor=#2ec27e;endSize=3;exitX=1.009;exitY=0.515;exitDx=0;exitDy=0;exitPerimeter=0;" edge="1" parent="rlfNi6pHsEPrAqG3626Q-272" source="rlfNi6pHsEPrAqG3626Q-178" target="rlfNi6pHsEPrAqG3626Q-7">
          <mxGeometry width="50" height="50" relative="1" as="geometry">
            <mxPoint x="195" y="77" as="sourcePoint" />
            <mxPoint x="284" y="125" as="targetPoint" />
          </mxGeometry>
        </mxCell>
        <mxCell id="rlfNi6pHsEPrAqG3626Q-211" value="" style="endArrow=classic;html=1;rounded=0;entryX=0.136;entryY=0.217;entryDx=0;entryDy=0;strokeColor=#2ec27e;endSize=3;entryPerimeter=0;exitX=1;exitY=0.5;exitDx=0;exitDy=0;" edge="1" parent="rlfNi6pHsEPrAqG3626Q-272" source="rlfNi6pHsEPrAqG3626Q-178" target="rlfNi6pHsEPrAqG3626Q-9">
          <mxGeometry width="50" height="50" relative="1" as="geometry">
            <mxPoint x="205" y="87" as="sourcePoint" />
            <mxPoint x="257" y="112" as="targetPoint" />
          </mxGeometry>
        </mxCell>
        <mxCell id="rlfNi6pHsEPrAqG3626Q-49" value="" style="endArrow=classic;html=1;rounded=0;entryX=0.021;entryY=0.733;entryDx=0;entryDy=0;entryPerimeter=0;strokeColor=#2ec27e;endSize=3;exitX=1;exitY=0.5;exitDx=0;exitDy=0;" edge="1" parent="rlfNi6pHsEPrAqG3626Q-272" source="rlfNi6pHsEPrAqG3626Q-172" target="rlfNi6pHsEPrAqG3626Q-7">
          <mxGeometry width="50" height="50" relative="1" as="geometry">
            <mxPoint x="199.5" y="160" as="sourcePoint" />
            <mxPoint x="246" y="42" as="targetPoint" />
          </mxGeometry>
        </mxCell>
        <mxCell id="rlfNi6pHsEPrAqG3626Q-212" value="" style="endArrow=classic;html=1;rounded=0;entryX=0;entryY=0.5;entryDx=0;entryDy=0;strokeColor=#2ec27e;endSize=3;exitX=1;exitY=0.5;exitDx=0;exitDy=0;" edge="1" parent="rlfNi6pHsEPrAqG3626Q-272" source="rlfNi6pHsEPrAqG3626Q-172" target="rlfNi6pHsEPrAqG3626Q-8">
          <mxGeometry width="50" height="50" relative="1" as="geometry">
            <mxPoint x="195" y="158" as="sourcePoint" />
            <mxPoint x="253" y="243" as="targetPoint" />
          </mxGeometry>
        </mxCell>
        <mxCell id="rlfNi6pHsEPrAqG3626Q-213" value="" style="endArrow=classic;html=1;rounded=0;strokeColor=#2ec27e;endSize=3;entryX=0;entryY=1;entryDx=0;entryDy=0;exitX=0.996;exitY=0.579;exitDx=0;exitDy=0;exitPerimeter=0;" edge="1" parent="rlfNi6pHsEPrAqG3626Q-272" source="rlfNi6pHsEPrAqG3626Q-177" target="rlfNi6pHsEPrAqG3626Q-7">
          <mxGeometry width="50" height="50" relative="1" as="geometry">
            <mxPoint x="204" y="292" as="sourcePoint" />
            <mxPoint x="255.5" y="262" as="targetPoint" />
          </mxGeometry>
        </mxCell>
        <mxCell id="rlfNi6pHsEPrAqG3626Q-249" value="&lt;i&gt;&lt;font data-font-src=&quot;https://fonts.googleapis.com/css?family=Computer+modern&quot; style=&quot;font-size: 16px;&quot; face=&quot;Computer modern&quot; color=&quot;#000000&quot;&gt;&lt;b&gt;Función de coste&lt;/b&gt;&lt;/font&gt;&lt;/i&gt;" style="ellipse;whiteSpace=wrap;html=1;fillColor=#f6f5f4;strokeColor=#000000;" vertex="1" parent="rlfNi6pHsEPrAqG3626Q-272">
          <mxGeometry x="795" y="137.5" width="120" height="80" as="geometry" />
        </mxCell>
        <mxCell id="rlfNi6pHsEPrAqG3626Q-250" value="" style="shape=curlyBracket;whiteSpace=wrap;html=1;rounded=1;flipH=1;labelPosition=right;verticalLabelPosition=middle;align=left;verticalAlign=middle;strokeWidth=2;strokeColor=#000000;" vertex="1" parent="rlfNi6pHsEPrAqG3626Q-272">
          <mxGeometry x="712" y="59" width="32" height="237" as="geometry" />
        </mxCell>
        <mxCell id="rlfNi6pHsEPrAqG3626Q-251" value="&lt;font size=&quot;1&quot; face=&quot;Computer modern&quot; color=&quot;#000000&quot;&gt;&lt;i&gt;&lt;b style=&quot;font-size: 15px;&quot;&gt;Optimizador&lt;/b&gt;&lt;/i&gt;&lt;/font&gt;" style="ellipse;whiteSpace=wrap;html=1;fillColor=#f6f5f4;strokeColor=#000000;" vertex="1" parent="rlfNi6pHsEPrAqG3626Q-272">
          <mxGeometry x="361.87" y="408" width="120" height="80" as="geometry" />
        </mxCell>
        <mxCell id="rlfNi6pHsEPrAqG3626Q-254" style="edgeStyle=orthogonalEdgeStyle;rounded=0;orthogonalLoop=1;jettySize=auto;html=1;entryX=1;entryY=0.5;entryDx=0;entryDy=0;strokeColor=#c01c28;strokeWidth=2;" edge="1" parent="rlfNi6pHsEPrAqG3626Q-272" source="rlfNi6pHsEPrAqG3626Q-249" target="rlfNi6pHsEPrAqG3626Q-251">
          <mxGeometry relative="1" as="geometry">
            <Array as="points">
              <mxPoint x="855" y="448" />
            </Array>
          </mxGeometry>
        </mxCell>
        <mxCell id="rlfNi6pHsEPrAqG3626Q-252" value="" style="shape=curlyBracket;whiteSpace=wrap;html=1;rounded=1;flipH=1;labelPosition=right;verticalLabelPosition=middle;align=left;verticalAlign=middle;rotation=90;strokeColor=#000000;strokeWidth=2;" vertex="1" parent="rlfNi6pHsEPrAqG3626Q-272">
          <mxGeometry x="389.52" y="125.74000000000001" width="64.7" height="447.25" as="geometry" />
        </mxCell>
        <mxCell id="rlfNi6pHsEPrAqG3626Q-253" style="edgeStyle=orthogonalEdgeStyle;rounded=0;orthogonalLoop=1;jettySize=auto;html=1;entryX=0.1;entryY=0.5;entryDx=0;entryDy=0;entryPerimeter=0;strokeColor=#c01c28;strokeWidth=2;" edge="1" parent="rlfNi6pHsEPrAqG3626Q-272" target="rlfNi6pHsEPrAqG3626Q-252">
          <mxGeometry relative="1" as="geometry">
            <mxPoint x="507" y="351.5" as="targetPoint" />
            <mxPoint x="422" y="408" as="sourcePoint" />
          </mxGeometry>
        </mxCell>
        <mxCell id="rlfNi6pHsEPrAqG3626Q-255" value="&lt;font data-font-src=&quot;https://fonts.googleapis.com/css?family=Computer+modern&quot; face=&quot;Computer modern&quot;&gt;&lt;i&gt;&lt;font color=&quot;#000000&quot;&gt;&lt;b style=&quot;font-size: 18px;&quot;&gt;Actualización de pesos&lt;/b&gt;&lt;/font&gt;&lt;font color=&quot;#000000&quot;&gt;&lt;b style=&quot;font-size: 18px;&quot;&gt; &lt;/b&gt;&lt;/font&gt;&lt;font color=&quot;#000000&quot;&gt;&lt;b style=&quot;font-size: 18px;&quot;&gt;y&lt;/b&gt;&lt;/font&gt;&lt;font color=&quot;#000000&quot;&gt;&lt;b style=&quot;font-size: 18px;&quot;&gt; bias&lt;/b&gt;&lt;/font&gt;&lt;/i&gt;&lt;/font&gt;" style="text;html=1;strokeColor=none;fillColor=none;align=center;verticalAlign=middle;whiteSpace=wrap;rounded=0;" vertex="1" parent="rlfNi6pHsEPrAqG3626Q-272">
          <mxGeometry x="235.5" y="317" width="376" height="30" as="geometry" />
        </mxCell>
        <mxCell id="rlfNi6pHsEPrAqG3626Q-268" value="&lt;div style=&quot;font-size: 15px;&quot;&gt;&lt;font style=&quot;font-size: 15px;&quot; face=&quot;Computer modern&quot; color=&quot;#000000&quot;&gt;&lt;i&gt;Sin&lt;/i&gt;&lt;/font&gt;&lt;/div&gt;&lt;div style=&quot;font-size: 15px;&quot;&gt;&lt;font style=&quot;font-size: 15px;&quot; face=&quot;Computer modern&quot; color=&quot;#000000&quot;&gt;&lt;i&gt;activación&lt;br&gt;&lt;/i&gt;&lt;/font&gt;&lt;/div&gt;" style="text;html=1;strokeColor=#F0EBEB;fillColor=#ffbe6f;align=center;verticalAlign=middle;whiteSpace=wrap;rounded=0;rotation=0;strokeWidth=2;" vertex="1" parent="rlfNi6pHsEPrAqG3626Q-272">
          <mxGeometry x="561" y="269.25" width="75" height="36.75" as="geometry" />
        </mxCell>
        <mxCell id="rlfNi6pHsEPrAqG3626Q-271" value="" style="rounded=1;whiteSpace=wrap;html=1;fillColor=none;strokeColor=none;" vertex="1" parent="rlfNi6pHsEPrAqG3626Q-272">
          <mxGeometry width="120" height="475" as="geometry" />
        </mxCell>
        <mxCell id="rlfNi6pHsEPrAqG3626Q-137" value="&lt;font style=&quot;font-size: 15px;&quot;&gt;&lt;i&gt;&lt;font style=&quot;font-size: 15px;&quot; data-font-src=&quot;https://fonts.googleapis.com/css?family=Computer+modern&quot; face=&quot;Computer modern&quot; color=&quot;#000000&quot;&gt;E&lt;sub&gt;Re &lt;font style=&quot;font-size: 15px;&quot;&gt;N&lt;/font&gt;&lt;/sub&gt;&lt;/font&gt;&lt;/i&gt;&lt;/font&gt;" style="ellipse;whiteSpace=wrap;html=1;aspect=fixed;fillColor=#FFCCCC;strokeColor=#000000;" vertex="1" parent="rlfNi6pHsEPrAqG3626Q-272">
          <mxGeometry x="643" y="136" width="46" height="46" as="geometry" />
        </mxCell>
        <mxCell id="rlfNi6pHsEPrAqG3626Q-163" value="&lt;font style=&quot;font-size: 13px;&quot;&gt;&lt;i style=&quot;font-size: 15px;&quot;&gt;&lt;font style=&quot;font-size: 15px;&quot; color=&quot;#000000&quot;&gt;&lt;font style=&quot;font-size: 15px;&quot; data-font-src=&quot;https://fonts.googleapis.com/css?family=Computer+modern&quot; face=&quot;Computer modern&quot;&gt;E&lt;/font&gt;&lt;sub&gt;&lt;font style=&quot;font-size: 15px;&quot; data-font-src=&quot;https://fonts.googleapis.com/css?family=Computer+modern&quot; face=&quot;Computer modern&quot;&gt;Im&lt;/font&gt; &lt;font style=&quot;font-size: 15px;&quot; data-font-src=&quot;https://fonts.googleapis.com/css?family=Computer+modern&quot; face=&quot;Computer modern&quot;&gt;1&lt;/font&gt;&lt;/sub&gt;&lt;/font&gt;&lt;/i&gt;&lt;/font&gt;" style="ellipse;whiteSpace=wrap;html=1;aspect=fixed;fillColor=#FFCCCC;strokeColor=#000000;" vertex="1" parent="rlfNi6pHsEPrAqG3626Q-272">
          <mxGeometry x="643" y="186" width="46" height="46" as="geometry" />
        </mxCell>
        <mxCell id="rlfNi6pHsEPrAqG3626Q-275" value="&lt;font size=&quot;1&quot; color=&quot;#000000&quot;&gt;&lt;i&gt;&lt;font style=&quot;font-size: 18px;&quot; data-font-src=&quot;https://fonts.googleapis.com/css?family=Computer+modern&quot; face=&quot;Computer modern&quot;&gt;ReLU&lt;/font&gt;&lt;/i&gt;&lt;/font&gt;" style="text;html=1;strokeColor=#F0EBEB;fillColor=#ffbe6f;align=center;verticalAlign=middle;whiteSpace=wrap;rounded=0;rotation=0;strokeWidth=2;" vertex="1" parent="rlfNi6pHsEPrAqG3626Q-272">
          <mxGeometry x="279" y="278.75" width="53" height="27.25" as="geometry" />
        </mxCell>
        <mxCell id="rlfNi6pHsEPrAqG3626Q-276" value="&lt;font size=&quot;1&quot; color=&quot;#000000&quot;&gt;&lt;i&gt;&lt;font style=&quot;font-size: 18px;&quot; data-font-src=&quot;https://fonts.googleapis.com/css?family=Computer+modern&quot; face=&quot;Computer modern&quot;&gt;ReLU&lt;/font&gt;&lt;/i&gt;&lt;/font&gt;" style="text;html=1;strokeColor=#F0EBEB;fillColor=#ffbe6f;align=center;verticalAlign=middle;whiteSpace=wrap;rounded=0;rotation=0;strokeWidth=2;" vertex="1" parent="rlfNi6pHsEPrAqG3626Q-272">
          <mxGeometry x="358.5" y="278.75" width="53" height="27.25" as="geometry" />
        </mxCell>
        <mxCell id="rlfNi6pHsEPrAqG3626Q-277" value="&lt;font size=&quot;1&quot; color=&quot;#000000&quot;&gt;&lt;i&gt;&lt;font style=&quot;font-size: 18px;&quot; data-font-src=&quot;https://fonts.googleapis.com/css?family=Computer+modern&quot; face=&quot;Computer modern&quot;&gt;ReLU&lt;/font&gt;&lt;/i&gt;&lt;/font&gt;" style="text;html=1;strokeColor=#F0EBEB;fillColor=#ffbe6f;align=center;verticalAlign=middle;whiteSpace=wrap;rounded=0;rotation=0;strokeWidth=2;" vertex="1" parent="rlfNi6pHsEPrAqG3626Q-272">
          <mxGeometry x="434" y="278.75" width="53" height="27.25" as="geometry" />
        </mxCell>
        <mxCell id="rlfNi6pHsEPrAqG3626Q-278" value="&lt;font size=&quot;1&quot; color=&quot;#000000&quot;&gt;&lt;i&gt;&lt;font style=&quot;font-size: 18px;&quot; data-font-src=&quot;https://fonts.googleapis.com/css?family=Computer+modern&quot; face=&quot;Computer modern&quot;&gt;ReLU&lt;/font&gt;&lt;/i&gt;&lt;/font&gt;" style="text;html=1;strokeColor=#F0EBEB;fillColor=#ffbe6f;align=center;verticalAlign=middle;whiteSpace=wrap;rounded=0;rotation=0;strokeWidth=2;" vertex="1" parent="rlfNi6pHsEPrAqG3626Q-272">
          <mxGeometry x="500" y="278.75" width="53" height="27.25" as="geometry" />
        </mxCell>
        <mxCell id="rlfNi6pHsEPrAqG3626Q-172" value="&lt;font style=&quot;font-size: 18px;&quot; data-font-src=&quot;https://fonts.googleapis.com/css?family=Computer+modern&quot; face=&quot;Computer modern&quot; color=&quot;#000000&quot;&gt;&lt;i&gt;T&lt;sub&gt;1N&lt;/sub&gt;&lt;/i&gt;&lt;/font&gt;" style="ellipse;whiteSpace=wrap;html=1;aspect=fixed;fillColor=#ccff99;strokeColor=#000000;" vertex="1" parent="rlfNi6pHsEPrAqG3626Q-272">
          <mxGeometry x="154.75" y="137.25" width="43.5" height="43.5" as="geometry" />
        </mxCell>
        <mxCell id="rlfNi6pHsEPrAqG3626Q-175" value="&lt;font style=&quot;font-size: 18px;&quot; data-font-src=&quot;https://fonts.googleapis.com/css?family=Computer+modern&quot; face=&quot;Computer modern&quot; color=&quot;#000000&quot;&gt;&lt;i&gt;T&lt;sub&gt;20&lt;/sub&gt;&lt;/i&gt;&lt;/font&gt;" style="ellipse;whiteSpace=wrap;html=1;aspect=fixed;fillColor=#ccff99;strokeColor=#000000;" vertex="1" parent="rlfNi6pHsEPrAqG3626Q-272">
          <mxGeometry x="153.75" y="186" width="44" height="44" as="geometry" />
        </mxCell>
        <mxCell id="rlfNi6pHsEPrAqG3626Q-207" value="" style="endArrow=classic;html=1;rounded=0;strokeColor=#2ec27e;endSize=3;entryX=0.1;entryY=0.826;entryDx=0;entryDy=0;entryPerimeter=0;exitX=0.99;exitY=0.58;exitDx=0;exitDy=0;exitPerimeter=0;" edge="1" parent="rlfNi6pHsEPrAqG3626Q-272" source="rlfNi6pHsEPrAqG3626Q-177" target="rlfNi6pHsEPrAqG3626Q-9">
          <mxGeometry width="50" height="50" relative="1" as="geometry">
            <mxPoint x="194" y="282" as="sourcePoint" />
            <mxPoint x="238" y="210" as="targetPoint" />
          </mxGeometry>
        </mxCell>
        <mxCell id="rlfNi6pHsEPrAqG3626Q-270" value="&lt;font size=&quot;1&quot; color=&quot;#000000&quot;&gt;&lt;i&gt;&lt;font style=&quot;font-size: 18px;&quot; data-font-src=&quot;https://fonts.googleapis.com/css?family=Computer+modern&quot; face=&quot;Computer modern&quot;&gt;ReLU&lt;/font&gt;&lt;/i&gt;&lt;/font&gt;" style="text;html=1;strokeColor=#F0EBEB;fillColor=#ffbe6f;align=center;verticalAlign=middle;whiteSpace=wrap;rounded=0;rotation=0;strokeWidth=2;" vertex="1" parent="rlfNi6pHsEPrAqG3626Q-272">
          <mxGeometry x="205" y="278.75" width="53" height="27.25" as="geometry" />
        </mxCell>
        <mxCell id="rlfNi6pHsEPrAqG3626Q-177" value="&lt;font style=&quot;font-size: 18px;&quot; data-font-src=&quot;https://fonts.googleapis.com/css?family=Computer+modern&quot; face=&quot;Computer modern&quot; color=&quot;#000000&quot;&gt;&lt;i&gt;T&lt;sub&gt;NN&lt;/sub&gt;&lt;/i&gt;&lt;/font&gt;" style="ellipse;whiteSpace=wrap;html=1;aspect=fixed;fillColor=#ccff99;strokeColor=#000000;" vertex="1" parent="rlfNi6pHsEPrAqG3626Q-272">
          <mxGeometry x="152.25" y="264.88" width="45.5" height="45.5" as="geometry" />
        </mxCell>
        <mxCell id="rlfNi6pHsEPrAqG3626Q-640" value="" style="endArrow=classic;html=1;rounded=0;strokeColor=#2ec27e;endSize=3;entryX=0;entryY=0.5;entryDx=0;entryDy=0;exitX=1;exitY=0.5;exitDx=0;exitDy=0;" edge="1" parent="rlfNi6pHsEPrAqG3626Q-272" source="rlfNi6pHsEPrAqG3626Q-175" target="rlfNi6pHsEPrAqG3626Q-285">
          <mxGeometry width="50" height="50" relative="1" as="geometry">
            <mxPoint x="83" y="306" as="sourcePoint" />
            <mxPoint x="132" y="143" as="targetPoint" />
          </mxGeometry>
        </mxCell>
        <mxCell id="rlfNi6pHsEPrAqG3626Q-641" value="" style="endArrow=classic;html=1;rounded=0;strokeColor=#2ec27e;endSize=3;entryX=0.078;entryY=0.739;entryDx=0;entryDy=0;exitX=1;exitY=0.5;exitDx=0;exitDy=0;entryPerimeter=0;" edge="1" parent="rlfNi6pHsEPrAqG3626Q-272" source="rlfNi6pHsEPrAqG3626Q-175" target="rlfNi6pHsEPrAqG3626Q-284">
          <mxGeometry width="50" height="50" relative="1" as="geometry">
            <mxPoint x="208" y="218" as="sourcePoint" />
            <mxPoint x="252" y="250" as="targetPoint" />
          </mxGeometry>
        </mxCell>
        <mxCell id="rlfNi6pHsEPrAqG3626Q-642" value="" style="endArrow=classic;html=1;rounded=0;strokeColor=#2ec27e;endSize=3;entryX=0;entryY=0.5;entryDx=0;entryDy=0;exitX=1;exitY=0.5;exitDx=0;exitDy=0;" edge="1" parent="rlfNi6pHsEPrAqG3626Q-272" source="rlfNi6pHsEPrAqG3626Q-175" target="rlfNi6pHsEPrAqG3626Q-280">
          <mxGeometry width="50" height="50" relative="1" as="geometry">
            <mxPoint x="208" y="218" as="sourcePoint" />
            <mxPoint x="255" y="179" as="targetPoint" />
          </mxGeometry>
        </mxCell>
      </root>
    </mxGraphModel>
  </diagram>
</mxfile>
